<svg id="svg" version="1.1" xmlns="http://www.w3.org/2000/svg" xmlns:xlink="http://www.w3.org/1999/xlink" width="400"
    height="370.7129094412332" viewBox="0, 0, 400,370.7129094412332">
    <g id="svgg">
        <path id="path0"
            d="M167.377 33.446 C 166.154 33.641,163.714 34.120,161.956 34.509 C 160.198 34.899,157.973 35.218,157.012 35.218 C 154.855 35.218,147.440 36.761,142.725 38.191 C 140.788 38.778,138.321 39.452,137.243 39.688 C 136.165 39.924,134.630 40.433,133.832 40.819 C 133.034 41.204,132.185 41.520,131.945 41.520 C 131.706 41.520,130.525 42.020,129.321 42.632 C 128.117 43.244,126.880 43.744,126.571 43.744 C 125.887 43.744,119.080 47.021,118.791 47.489 C 118.677 47.672,118.336 47.822,118.033 47.822 C 117.179 47.822,112.409 50.297,111.201 51.367 C 110.887 51.645,109.970 52.145,109.162 52.478 C 107.484 53.171,98.615 58.970,97.881 59.855 C 97.614 60.177,96.862 60.693,96.211 61.002 C 95.559 61.311,94.456 62.147,93.760 62.860 C 93.063 63.572,91.876 64.482,91.123 64.883 C 90.369 65.283,89.618 65.827,89.455 66.090 C 89.291 66.354,87.822 67.736,86.191 69.162 C 81.328 73.412,77.186 77.763,70.685 85.449 C 69.995 86.265,68.968 87.641,68.401 88.508 C 67.835 89.374,67.231 90.083,67.060 90.083 C 66.889 90.083,66.088 91.126,65.280 92.400 C 64.472 93.675,63.375 95.301,62.844 96.015 C 61.345 98.026,60.260 99.795,59.724 101.100 C 59.455 101.756,58.999 102.488,58.711 102.726 C 58.424 102.965,57.912 103.763,57.573 104.500 C 57.235 105.236,56.676 106.256,56.331 106.766 C 55.986 107.275,55.580 108.109,55.427 108.619 C 55.275 109.129,54.739 110.095,54.236 110.765 C 53.734 111.436,53.181 112.437,53.008 112.990 C 52.445 114.785,50.403 119.496,49.950 120.042 C 48.663 121.593,43.740 138.024,42.456 145.056 C 42.129 146.848,41.677 148.767,41.452 149.319 C 40.848 150.800,40.455 153.477,40.097 158.553 C 39.856 161.964,39.607 163.329,39.083 164.114 C 37.917 165.860,37.766 183.340,38.904 184.879 C 39.551 185.754,39.769 186.777,40.038 190.201 C 40.511 196.229,40.764 197.946,41.427 199.629 C 41.986 201.047,42.423 203.232,42.875 206.858 C 42.989 207.776,43.216 208.693,43.378 208.897 C 43.541 209.101,43.871 210.352,44.111 211.677 C 44.566 214.187,44.662 214.480,45.935 217.263 C 46.361 218.193,46.712 219.194,46.715 219.487 C 46.725 220.433,49.540 228.335,50.107 229.006 C 50.409 229.364,50.884 230.408,51.162 231.325 C 51.440 232.243,51.970 233.436,52.340 233.978 C 52.709 234.519,53.012 235.269,53.013 235.646 C 53.013 236.022,53.513 236.914,54.124 237.627 C 54.735 238.341,55.235 239.225,55.235 239.591 C 55.236 239.958,55.820 241.171,56.534 242.286 C 57.247 243.402,57.831 244.458,57.831 244.633 C 57.831 244.808,58.106 245.179,58.441 245.457 C 58.776 245.735,59.519 246.975,60.092 248.213 C 60.665 249.450,61.651 251.036,62.283 251.737 C 62.916 252.438,63.575 253.357,63.748 253.778 C 64.117 254.674,67.840 259.627,68.282 259.808 C 68.447 259.876,68.582 260.094,68.582 260.292 C 68.582 260.987,70.628 263.207,71.270 263.207 C 72.212 263.207,72.109 261.492,70.959 258.082 C 70.028 255.320,68.893 250.634,67.478 243.713 C 67.099 241.860,66.549 239.768,66.254 239.063 C 65.960 238.358,65.524 236.037,65.287 233.905 C 64.775 229.310,64.631 228.342,64.134 226.135 C 62.352 218.227,62.596 185.255,64.500 176.645 C 64.681 175.829,65.030 173.327,65.276 171.084 C 65.522 168.842,65.952 166.553,66.230 165.999 C 66.508 165.444,67.049 163.442,67.433 161.550 C 68.336 157.091,69.628 151.734,70.140 150.324 C 70.362 149.713,71.395 146.705,72.436 143.640 C 73.476 140.575,74.624 137.656,74.986 137.152 C 75.348 136.649,75.823 135.576,76.041 134.767 C 76.260 133.959,76.756 132.894,77.144 132.400 C 77.532 131.907,77.850 131.134,77.850 130.682 C 77.850 130.231,78.347 129.127,78.955 128.230 C 79.563 127.333,80.064 126.470,80.067 126.313 C 80.076 125.929,82.805 120.463,84.366 117.702 C 85.058 116.478,85.954 114.768,86.358 113.902 C 86.761 113.035,87.438 111.951,87.862 111.492 C 88.286 111.033,89.704 108.990,91.013 106.951 C 92.322 104.912,93.525 103.077,93.687 102.873 C 93.849 102.669,94.269 102.054,94.620 101.507 C 94.972 100.959,95.659 100.112,96.148 99.623 C 96.637 99.134,97.739 97.705,98.597 96.448 C 99.456 95.190,100.296 94.161,100.466 94.161 C 100.635 94.161,101.122 93.597,101.549 92.907 C 101.975 92.217,103.073 90.927,103.989 90.039 C 104.904 89.152,105.653 88.313,105.653 88.174 C 105.653 87.756,114.586 78.977,118.114 75.928 C 119.926 74.362,121.826 72.684,122.335 72.199 C 122.845 71.715,124.202 70.699,125.351 69.943 C 126.499 69.186,127.834 68.187,128.316 67.722 C 129.243 66.830,133.235 64.133,133.629 64.133 C 133.757 64.133,134.265 63.729,134.759 63.235 C 135.253 62.742,136.028 62.220,136.480 62.076 C 136.933 61.933,138.438 61.088,139.825 60.199 C 142.542 58.457,147.957 55.607,148.549 55.607 C 148.749 55.607,149.214 55.273,149.583 54.866 C 149.952 54.458,150.528 54.124,150.864 54.124 C 151.199 54.124,151.632 53.983,151.826 53.811 C 152.019 53.639,153.179 53.111,154.402 52.638 C 155.626 52.164,157.461 51.362,158.480 50.855 C 160.630 49.786,169.201 47.084,170.450 47.082 C 170.917 47.081,171.918 46.772,172.675 46.396 C 173.954 45.759,176.717 45.105,179.796 44.712 C 180.510 44.621,182.178 44.302,183.503 44.004 C 190.415 42.447,211.264 42.506,219.462 44.106 C 221.399 44.484,223.901 44.902,225.022 45.035 C 226.143 45.168,228.062 45.666,229.286 46.142 C 230.509 46.618,232.428 47.216,233.550 47.471 C 236.374 48.113,241.358 49.867,243.467 50.961 C 244.435 51.463,245.978 52.198,246.895 52.593 C 249.535 53.730,251.725 54.812,254.124 56.163 C 255.348 56.852,256.766 57.603,257.275 57.832 C 257.785 58.062,258.619 58.624,259.129 59.081 C 259.639 59.539,261.140 60.462,262.465 61.132 C 263.791 61.802,265.292 62.733,265.802 63.200 C 267.041 64.336,268.397 64.747,268.397 63.986 C 268.397 63.674,268.021 63.221,267.563 62.979 C 267.104 62.738,266.228 62.153,265.616 61.680 C 259.272 56.774,258.685 56.348,258.264 56.348 C 258.048 56.348,257.446 55.959,256.925 55.482 C 256.038 54.672,244.289 47.822,243.784 47.822 C 243.657 47.822,241.659 46.905,239.344 45.783 C 237.029 44.662,234.887 43.744,234.583 43.744 C 234.279 43.744,233.297 43.355,232.400 42.879 C 231.503 42.403,230.269 41.893,229.657 41.745 C 229.045 41.597,227.878 41.167,227.062 40.790 C 226.247 40.412,224.348 39.831,222.842 39.498 C 221.337 39.166,219.535 38.655,218.838 38.364 C 218.142 38.073,216.371 37.584,214.903 37.278 C 213.435 36.971,211.233 36.456,210.009 36.134 C 208.786 35.811,206.117 35.393,204.078 35.206 C 202.039 35.019,199.787 34.700,199.073 34.497 C 194.223 33.118,173.700 32.438,167.377 33.446 M205.097 44.370 C 205.454 44.464,206.038 44.464,206.395 44.370 C 206.752 44.277,206.460 44.201,205.746 44.201 C 205.032 44.201,204.741 44.277,205.097 44.370 M268.993 65.402 C 269.236 66.035,270.177 66.447,270.677 66.138 C 271.078 65.890,269.950 64.905,269.242 64.887 C 268.994 64.880,268.882 65.112,268.993 65.402 M271.830 67.726 C 272.175 68.071,272.561 68.248,272.688 68.121 C 273.053 67.756,272.493 67.099,271.817 67.099 C 271.251 67.099,271.252 67.148,271.830 67.726 "
            stroke="none" fill="#be2e24" fill-rule="evenodd"></path>
        <path id="path1"
            d="M213.695 66.588 C 210.508 68.251,208.830 69.092,205.746 70.575 C 204.421 71.212,203.281 71.858,203.213 72.011 C 203.145 72.164,202.853 72.289,202.564 72.289 C 202.275 72.289,202.039 72.456,202.039 72.660 C 202.039 72.864,201.622 73.031,201.112 73.031 C 200.602 73.031,200.185 73.197,200.185 73.401 C 200.185 73.605,199.893 73.776,199.537 73.780 C 199.180 73.785,198.471 74.115,197.961 74.513 C 197.451 74.912,196.858 75.242,196.643 75.247 C 196.429 75.251,195.464 75.755,194.499 76.367 C 193.534 76.979,192.526 77.479,192.258 77.479 C 191.587 77.479,185.201 80.786,185.048 81.212 C 184.980 81.402,184.610 81.557,184.225 81.557 C 183.548 81.557,181.087 82.763,180.371 83.446 C 180.177 83.630,179.760 83.786,179.444 83.792 C 179.128 83.797,178.214 84.298,177.413 84.904 C 176.612 85.510,175.603 86.006,175.170 86.006 C 174.738 86.006,174.225 86.159,174.032 86.347 C 173.838 86.535,172.595 87.249,171.270 87.934 C 169.944 88.619,168.443 89.409,167.933 89.690 C 166.374 90.547,165.736 90.825,165.328 90.825 C 165.113 90.825,164.578 91.158,164.141 91.566 C 163.703 91.974,163.049 92.308,162.686 92.308 C 162.324 92.308,161.238 92.808,160.274 93.420 C 159.309 94.032,158.070 94.532,157.520 94.532 C 156.959 94.532,156.424 94.784,156.300 95.107 C 156.178 95.423,155.333 96.012,154.422 96.415 C 153.510 96.818,152.677 97.290,152.570 97.463 C 152.463 97.636,151.414 98.160,150.238 98.627 C 149.062 99.095,147.657 99.783,147.116 100.156 C 146.575 100.529,145.897 100.834,145.610 100.834 C 145.324 100.834,144.765 101.127,144.370 101.486 C 143.458 102.313,141.790 103.058,140.854 103.058 C 140.456 103.058,140.130 103.198,140.130 103.370 C 140.130 103.541,137.207 105.147,133.635 106.939 C 130.063 108.731,127.053 110.338,126.946 110.510 C 126.840 110.682,126.051 111.023,125.193 111.267 C 124.335 111.511,123.299 111.989,122.892 112.329 C 122.484 112.669,121.566 113.172,120.853 113.446 C 120.139 113.720,119.157 114.248,118.671 114.618 C 118.185 114.989,117.635 115.292,117.449 115.292 C 117.158 115.292,115.038 116.317,108.915 119.416 C 108.160 119.799,107.337 120.111,107.085 120.111 C 106.834 120.111,106.284 120.418,105.863 120.793 C 105.442 121.167,104.513 121.695,103.800 121.966 C 103.086 122.236,102.252 122.660,101.946 122.908 C 101.640 123.156,100.848 123.633,100.185 123.969 C 98.073 125.038,98.778 126.094,103.511 128.949 C 105.290 130.021,106.843 131.058,106.963 131.252 C 107.083 131.446,107.894 131.930,108.766 132.327 C 109.638 132.725,110.566 133.308,110.828 133.624 C 111.090 133.940,111.453 134.198,111.634 134.198 C 111.815 134.198,112.754 134.714,113.720 135.343 C 117.691 137.932,123.053 141.242,123.275 141.242 C 123.405 141.242,124.707 142.047,126.167 143.030 C 127.628 144.014,129.907 145.460,131.233 146.245 C 132.558 147.030,134.100 148.049,134.660 148.510 C 135.219 148.970,136.053 149.461,136.513 149.602 C 136.973 149.742,138.517 150.640,139.944 151.598 C 141.372 152.556,143.540 153.900,144.764 154.584 C 145.987 155.269,147.442 156.203,147.998 156.659 C 148.554 157.116,149.596 157.684,150.315 157.921 C 151.034 158.158,151.622 158.471,151.622 158.616 C 151.622 158.944,155.525 161.496,158.457 163.085 C 159.668 163.741,161.140 164.683,161.729 165.179 C 162.318 165.674,163.011 166.080,163.268 166.080 C 163.525 166.080,164.305 166.501,165.001 167.016 C 167.289 168.711,169.953 170.376,171.150 170.861 C 171.798 171.123,172.616 171.656,172.969 172.045 C 173.321 172.434,173.745 172.753,173.911 172.753 C 174.078 172.753,174.928 173.232,175.800 173.819 C 178.635 175.725,183.666 178.879,184.615 179.346 C 186.178 180.115,188.080 181.321,189.152 182.223 C 189.713 182.695,190.548 183.198,191.008 183.340 C 191.468 183.483,193.095 184.470,194.625 185.534 C 196.154 186.598,198.406 188.009,199.629 188.669 C 200.853 189.329,202.187 190.161,202.595 190.518 C 203.003 190.874,203.955 191.448,204.711 191.793 C 205.467 192.138,206.179 192.572,206.294 192.758 C 206.408 192.943,206.958 193.330,207.514 193.617 C 208.071 193.904,210.081 195.099,211.981 196.273 C 216.328 198.957,217.006 199.001,220.618 196.834 C 224.408 194.561,225.789 193.677,226.947 192.781 C 227.495 192.358,228.496 191.779,229.171 191.496 C 229.846 191.214,230.898 190.552,231.508 190.027 C 232.118 189.502,233.619 188.543,234.844 187.896 C 236.774 186.877,237.712 186.249,239.707 184.644 C 239.933 184.462,240.812 183.959,241.661 183.526 C 242.509 183.093,244.076 182.077,245.142 181.268 C 246.208 180.459,247.831 179.446,248.749 179.018 C 249.666 178.590,251.257 177.611,252.283 176.842 C 253.310 176.073,254.823 175.101,255.645 174.681 C 256.467 174.262,257.357 173.656,257.623 173.336 C 257.890 173.015,258.282 172.753,258.496 172.753 C 258.710 172.753,259.207 172.461,259.602 172.104 C 259.996 171.747,261.202 170.955,262.281 170.343 C 264.231 169.239,265.842 168.227,272.167 164.133 C 273.979 162.961,275.541 162.002,275.639 162.002 C 275.736 162.002,277.164 161.074,278.811 159.939 C 280.458 158.805,282.097 157.762,282.453 157.622 C 282.809 157.482,284.338 156.546,285.850 155.541 C 290.384 152.530,292.182 151.412,294.807 149.969 C 296.181 149.214,297.395 148.452,297.504 148.275 C 297.787 147.817,300.813 145.811,302.585 144.907 C 303.413 144.485,304.275 143.985,304.501 143.796 C 305.591 142.887,307.637 141.586,308.804 141.061 C 309.518 140.739,310.276 140.247,310.488 139.967 C 310.883 139.447,313.401 137.815,315.993 136.400 C 316.786 135.967,317.736 135.332,318.105 134.989 C 318.473 134.646,319.659 133.893,320.740 133.315 C 321.822 132.738,323.040 131.968,323.448 131.605 C 323.855 131.243,324.856 130.587,325.672 130.150 C 331.362 127.096,332.675 124.857,329.271 124.013 C 328.719 123.876,327.933 123.469,327.525 123.109 C 327.118 122.750,326.200 122.226,325.487 121.946 C 324.773 121.666,323.866 121.138,323.470 120.774 C 323.075 120.409,322.608 120.111,322.433 120.111 C 322.051 120.111,320.329 119.272,316.589 117.262 C 315.060 116.440,313.392 115.638,312.882 115.479 C 312.373 115.320,311.258 114.713,310.406 114.129 C 309.554 113.545,308.647 113.068,308.391 113.068 C 308.135 113.068,307.581 112.761,307.160 112.386 C 306.739 112.011,305.811 111.482,305.097 111.209 C 304.384 110.937,303.383 110.429,302.873 110.080 C 302.363 109.731,300.278 108.607,298.239 107.581 C 296.200 106.555,292.614 104.697,290.269 103.451 C 287.924 102.206,284.421 100.414,282.484 99.469 C 280.547 98.525,278.083 97.194,277.010 96.513 C 275.936 95.832,273.600 94.587,271.820 93.747 C 270.039 92.906,268.139 91.905,267.598 91.522 C 267.057 91.138,266.348 90.825,266.022 90.825 C 265.697 90.825,265.431 90.671,265.431 90.484 C 265.431 90.296,264.932 90.033,264.323 89.899 C 263.714 89.765,263.125 89.509,263.014 89.330 C 262.903 89.151,261.108 88.158,259.024 87.125 C 256.941 86.091,254.235 84.668,253.012 83.963 C 251.789 83.258,250.204 82.414,249.490 82.088 C 248.777 81.762,247.859 81.310,247.451 81.085 C 247.044 80.859,245.561 80.039,244.156 79.262 C 242.752 78.485,241.399 77.850,241.150 77.850 C 240.900 77.850,240.084 77.434,239.334 76.926 C 237.973 76.001,236.686 75.307,233.550 73.803 C 232.632 73.363,231.567 72.827,231.182 72.611 C 228.752 71.250,227.655 70.659,226.506 70.093 C 225.093 69.397,224.384 69.021,220.204 66.754 C 216.827 64.922,216.887 64.923,213.695 66.588 M220.629 68.759 C 221.406 69.274,222.170 69.695,222.328 69.695 C 222.699 69.697,227.057 71.920,228.730 72.962 C 229.444 73.406,230.570 73.872,231.233 73.998 C 231.895 74.123,232.437 74.371,232.437 74.549 C 232.437 74.728,233.397 75.381,234.569 76.001 C 241.888 79.873,243.469 80.727,244.300 81.255 C 244.810 81.580,245.894 82.050,246.710 82.300 C 247.525 82.550,248.443 83.043,248.749 83.394 C 249.055 83.746,249.889 84.256,250.602 84.528 C 251.316 84.800,252.317 85.304,252.827 85.648 C 253.336 85.992,254.366 86.472,255.114 86.714 C 255.862 86.957,256.675 87.397,256.920 87.693 C 257.165 87.988,257.573 88.230,257.825 88.230 C 258.077 88.230,258.933 88.673,259.726 89.215 C 260.519 89.758,261.907 90.426,262.811 90.701 C 263.715 90.976,264.764 91.533,265.142 91.940 C 265.521 92.346,266.068 92.678,266.359 92.678 C 266.650 92.678,267.677 93.179,268.642 93.791 C 269.606 94.402,270.673 94.903,271.013 94.903 C 271.353 94.903,272.261 95.403,273.031 96.015 C 273.800 96.627,274.625 97.127,274.863 97.127 C 275.101 97.127,275.866 97.548,276.563 98.062 C 277.260 98.576,278.495 99.176,279.308 99.394 C 280.120 99.613,280.959 100.005,281.171 100.266 C 281.383 100.526,282.058 100.904,282.670 101.106 C 283.281 101.308,284.431 101.913,285.224 102.451 C 286.016 102.989,286.950 103.429,287.297 103.429 C 287.645 103.429,288.413 103.845,289.004 104.353 C 290.183 105.366,294.717 107.677,296.309 108.077 C 296.861 108.215,297.312 108.487,297.312 108.680 C 297.312 108.873,298.105 109.379,299.073 109.803 C 300.042 110.227,301.277 110.885,301.818 111.265 C 302.359 111.645,303.129 111.956,303.529 111.956 C 303.929 111.956,304.657 112.271,305.148 112.657 C 306.463 113.692,308.401 114.830,310.287 115.676 C 311.205 116.088,312.373 116.659,312.882 116.945 C 313.392 117.232,314.554 117.818,315.464 118.247 C 316.374 118.676,317.375 119.258,317.688 119.540 C 318.001 119.823,318.758 120.172,319.370 120.316 C 319.981 120.461,320.982 120.948,321.594 121.398 C 322.206 121.848,323.624 122.684,324.745 123.255 C 325.867 123.827,327.243 124.534,327.804 124.825 C 328.364 125.117,328.823 125.588,328.823 125.872 C 328.823 126.349,324.686 129.379,324.035 129.379 C 323.877 129.379,323.430 129.731,323.042 130.161 C 322.653 130.590,321.585 131.349,320.667 131.846 C 317.641 133.487,316.824 134.004,315.972 134.818 C 315.509 135.261,314.759 135.742,314.305 135.886 C 313.306 136.203,309.878 138.264,309.361 138.859 C 308.763 139.546,305.031 141.863,303.522 142.485 C 302.757 142.800,302.132 143.237,302.132 143.455 C 302.132 143.674,301.673 144.051,301.112 144.292 C 299.782 144.866,296.321 147.033,295.449 147.839 C 295.072 148.186,293.503 149.109,291.960 149.888 C 290.418 150.667,289.157 151.469,289.157 151.670 C 289.157 151.870,288.413 152.363,287.504 152.765 C 286.595 153.168,285.742 153.672,285.609 153.887 C 285.477 154.102,284.635 154.592,283.740 154.976 C 282.845 155.359,282.113 155.843,282.113 156.051 C 282.113 156.259,281.321 156.850,280.352 157.365 C 277.555 158.853,276.459 159.522,275.035 160.612 C 274.302 161.172,273.530 161.631,273.319 161.631 C 273.108 161.631,272.718 161.894,272.452 162.214 C 272.186 162.535,271.324 163.126,270.538 163.527 C 269.751 163.929,268.781 164.584,268.381 164.983 C 267.982 165.382,267.509 165.709,267.329 165.709 C 266.842 165.709,262.825 168.185,261.896 169.058 C 261.451 169.476,260.104 170.325,258.903 170.945 C 257.702 171.564,256.293 172.474,255.772 172.968 C 255.251 173.461,254.692 173.865,254.530 173.865 C 254.081 173.865,249.798 176.496,248.749 177.417 C 248.239 177.864,247.405 178.356,246.895 178.509 C 245.921 178.802,244.636 179.686,242.765 181.349 C 242.147 181.897,241.168 182.450,240.587 182.578 C 240.007 182.705,239.323 183.061,239.068 183.369 C 238.813 183.676,237.967 184.253,237.189 184.650 C 236.411 185.047,235.774 185.515,235.774 185.689 C 235.774 185.864,234.981 186.371,234.013 186.817 C 232.035 187.727,229.658 189.104,228.545 189.986 C 227.563 190.764,225.251 192.260,223.993 192.931 C 223.438 193.227,222.505 193.891,221.919 194.407 C 221.334 194.923,220.500 195.453,220.066 195.585 C 219.632 195.717,218.991 196.076,218.641 196.383 C 217.403 197.470,212.632 195.962,210.759 193.892 C 210.385 193.480,209.910 193.142,209.704 193.142 C 209.497 193.142,207.856 192.141,206.058 190.918 C 204.259 189.694,202.640 188.693,202.459 188.693 C 202.278 188.693,201.923 188.444,201.670 188.139 C 201.417 187.834,200.545 187.385,199.733 187.142 C 198.922 186.899,198.016 186.331,197.720 185.881 C 197.425 185.430,196.649 184.847,195.997 184.585 C 195.344 184.323,194.338 183.723,193.762 183.250 C 193.186 182.778,192.414 182.391,192.047 182.391 C 191.679 182.391,191.153 182.118,190.876 181.785 C 190.337 181.135,188.095 179.566,186.510 178.729 C 185.978 178.448,184.208 177.333,182.576 176.251 C 180.945 175.170,179.152 174.172,178.591 174.035 C 178.031 173.897,177.572 173.654,177.572 173.495 C 177.572 173.077,173.079 170.323,171.599 169.834 C 170.908 169.606,169.900 168.950,169.358 168.376 C 168.817 167.802,167.379 166.802,166.164 166.154 C 164.948 165.506,163.744 164.724,163.488 164.416 C 163.233 164.108,162.875 163.855,162.695 163.855 C 162.514 163.855,161.675 163.355,160.831 162.743 C 159.986 162.132,159.025 161.631,158.694 161.631 C 158.364 161.631,157.513 161.160,156.804 160.585 C 156.095 160.010,154.430 158.893,153.105 158.103 C 151.779 157.313,150.361 156.382,149.954 156.036 C 149.546 155.689,147.878 154.701,146.247 153.841 C 144.615 152.981,143.224 152.124,143.153 151.938 C 143.083 151.752,142.249 151.176,141.300 150.660 C 139.187 149.510,137.373 148.411,135.463 147.123 C 134.665 146.585,132.780 145.418,131.274 144.528 C 129.768 143.638,127.933 142.532,127.196 142.070 C 126.460 141.607,125.500 141.076,125.064 140.890 C 124.628 140.703,123.711 140.061,123.025 139.462 C 122.340 138.864,120.563 137.739,119.076 136.963 C 117.589 136.186,115.995 135.205,115.533 134.782 C 115.072 134.359,114.037 133.704,113.232 133.327 C 112.428 132.950,110.185 131.595,108.248 130.316 C 106.311 129.037,104.226 127.733,103.614 127.417 C 101.838 126.499,101.009 125.340,101.746 124.804 C 102.451 124.293,108.716 121.124,112.882 119.173 C 114.513 118.409,116.098 117.570,116.404 117.309 C 116.710 117.047,117.878 116.473,118.999 116.033 C 120.120 115.593,121.288 115.016,121.594 114.750 C 121.900 114.485,122.567 114.142,123.077 113.988 C 123.587 113.834,124.475 113.313,125.052 112.832 C 125.628 112.350,126.324 111.956,126.598 111.956 C 127.142 111.956,132.190 109.506,133.086 108.807 C 133.392 108.569,134.476 108.071,135.496 107.702 C 137.323 107.039,140.156 105.570,141.242 104.723 C 141.548 104.485,142.757 103.910,143.930 103.446 C 145.102 102.981,146.061 102.495,146.061 102.364 C 146.061 102.075,147.721 101.338,149.149 100.992 C 149.727 100.853,150.281 100.525,150.381 100.264 C 150.481 100.003,151.009 99.677,151.553 99.540 C 152.098 99.404,154.129 98.402,156.068 97.315 C 158.006 96.228,160.343 95.042,161.260 94.680 C 162.178 94.317,163.429 93.719,164.041 93.351 C 164.652 92.983,165.438 92.681,165.787 92.680 C 166.136 92.679,166.728 92.349,167.103 91.947 C 167.478 91.544,168.519 90.956,169.416 90.639 C 170.313 90.323,171.306 89.842,171.622 89.570 C 171.938 89.299,173.531 88.462,175.162 87.710 C 176.793 86.959,178.462 86.153,178.869 85.919 C 179.277 85.686,180.445 85.091,181.464 84.598 C 182.484 84.105,183.541 83.520,183.814 83.298 C 184.087 83.076,185.154 82.598,186.185 82.234 C 187.216 81.871,188.327 81.350,188.655 81.075 C 188.982 80.801,190.584 79.959,192.215 79.205 C 193.846 78.450,195.598 77.589,196.108 77.291 C 196.617 76.992,197.868 76.329,198.888 75.817 C 199.907 75.304,200.992 74.724,201.297 74.527 C 201.603 74.330,202.521 73.851,203.336 73.463 C 204.152 73.074,206.201 72.067,207.889 71.225 C 209.578 70.383,211.154 69.694,211.391 69.694 C 211.629 69.694,212.454 69.257,213.226 68.722 C 215.805 66.935,217.888 66.945,220.629 68.759 M334.180 141.169 C 332.171 142.010,322.027 148.097,321.424 148.823 C 321.162 149.139,320.671 149.398,320.334 149.398 C 319.996 149.398,319.311 149.690,318.810 150.046 C 317.088 151.274,311.957 154.217,311.538 154.217 C 311.308 154.217,310.912 154.466,310.659 154.772 C 310.406 155.077,308.592 156.193,306.629 157.253 C 304.665 158.312,302.308 159.697,301.390 160.330 C 300.473 160.963,299.222 161.720,298.610 162.012 C 297.998 162.304,296.997 162.880,296.386 163.293 C 294.515 164.554,293.873 164.928,291.598 166.078 C 290.392 166.688,289.111 167.454,288.751 167.780 C 287.995 168.464,286.435 169.362,283.723 170.675 C 282.671 171.184,281.711 171.762,281.589 171.959 C 281.468 172.156,280.159 172.981,278.682 173.793 C 277.205 174.605,275.079 175.888,273.957 176.645 C 272.836 177.402,271.001 178.508,269.880 179.102 C 268.758 179.696,267.173 180.599,266.358 181.108 C 265.542 181.617,263.883 182.532,262.671 183.142 C 261.459 183.752,260.125 184.541,259.705 184.897 C 258.831 185.638,257.910 186.191,255.051 187.694 C 253.930 188.283,252.929 188.875,252.827 189.008 C 252.619 189.278,251.740 189.804,248.735 191.457 C 247.606 192.078,246.272 192.883,245.769 193.247 C 243.757 194.704,242.019 195.737,241.577 195.737 C 241.321 195.737,240.084 196.404,238.829 197.220 C 237.574 198.035,236.373 198.703,236.161 198.703 C 235.948 198.703,235.774 198.851,235.774 199.032 C 235.774 199.214,234.981 199.731,234.013 200.181 C 233.044 200.631,231.918 201.302,231.511 201.671 C 231.103 202.041,229.268 203.131,227.433 204.093 C 225.598 205.056,223.429 206.294,222.614 206.845 C 216.511 210.967,215.805 210.965,208.601 206.803 C 204.354 204.349,203.201 203.694,201.613 202.830 C 200.726 202.347,199.750 201.735,199.444 201.470 C 199.138 201.204,197.553 200.286,195.922 199.430 C 194.291 198.574,192.706 197.656,192.400 197.391 C 192.095 197.126,190.510 196.209,188.879 195.353 C 187.247 194.497,185.382 193.400,184.733 192.914 C 184.085 192.428,183.167 191.864,182.694 191.661 C 182.222 191.459,180.751 190.635,179.425 189.830 C 178.100 189.026,176.348 188.028,175.533 187.613 C 174.717 187.198,173.049 186.222,171.826 185.446 C 170.602 184.669,168.130 183.205,166.332 182.193 C 164.533 181.180,162.031 179.737,160.771 178.986 C 159.511 178.234,157.958 177.376,157.321 177.077 C 156.683 176.779,156.054 176.362,155.923 176.150 C 155.792 175.938,154.145 174.990,152.263 174.043 C 150.381 173.095,148.556 172.064,148.207 171.751 C 147.859 171.438,146.774 170.788,145.798 170.306 C 144.821 169.825,142.963 168.761,141.668 167.941 C 140.373 167.121,139.252 166.450,139.177 166.450 C 139.102 166.450,137.576 165.583,135.785 164.523 C 133.995 163.463,131.863 162.244,131.047 161.815 C 128.351 160.395,126.750 159.404,125.951 158.659 C 125.517 158.255,124.984 157.924,124.768 157.924 C 124.551 157.924,122.956 157.079,121.223 156.048 C 119.490 155.016,117.405 153.858,116.589 153.475 C 114.999 152.728,112.999 151.571,112.697 151.224 C 112.595 151.106,111.761 150.612,110.843 150.125 C 109.926 149.638,108.051 148.513,106.678 147.625 C 105.304 146.737,103.219 145.499,102.044 144.874 C 100.869 144.249,99.240 143.286,98.424 142.734 C 95.513 140.764,93.049 140.564,93.049 142.297 C 93.049 142.660,92.740 143.613,92.362 144.416 C 91.985 145.219,91.453 146.960,91.182 148.285 C 90.911 149.611,90.386 151.527,90.015 152.543 C 89.645 153.560,89.342 154.827,89.342 155.359 C 89.342 155.891,89.012 157.311,88.610 158.515 C 87.293 162.451,87.988 163.915,92.308 166.306 C 94.894 167.737,96.643 168.830,97.380 169.474 C 97.751 169.798,98.721 170.369,99.537 170.743 C 100.352 171.117,101.799 172.015,102.751 172.737 C 103.704 173.459,105.527 174.634,106.803 175.348 C 108.079 176.061,109.776 177.187,110.574 177.850 C 111.373 178.513,112.230 179.055,112.479 179.055 C 112.729 179.055,114.468 180.056,116.343 181.279 C 118.219 182.502,119.829 183.503,119.920 183.503 C 120.011 183.503,120.800 184.009,121.674 184.628 C 123.980 186.260,124.435 186.551,127.711 188.492 C 129.342 189.458,131.212 190.608,131.865 191.047 C 132.519 191.485,134.604 192.816,136.499 194.003 C 138.394 195.190,141.020 196.858,142.335 197.710 C 144.735 199.265,146.642 200.420,149.277 201.918 C 150.057 202.361,151.029 202.995,151.437 203.326 C 151.844 203.658,153.080 204.463,154.182 205.116 C 155.284 205.768,156.618 206.594,157.147 206.952 C 157.677 207.309,158.610 207.837,159.222 208.124 C 159.833 208.412,160.834 209.079,161.446 209.606 C 162.057 210.133,162.741 210.565,162.964 210.565 C 163.187 210.565,163.661 210.887,164.017 211.281 C 164.373 211.674,165.275 212.283,166.021 212.634 C 166.767 212.985,168.383 213.973,169.611 214.828 C 170.840 215.684,172.508 216.691,173.319 217.068 C 174.129 217.444,175.959 218.513,177.386 219.443 C 178.814 220.373,180.247 221.300,180.572 221.503 C 180.896 221.706,182.424 222.706,183.968 223.726 C 185.511 224.745,187.247 225.866,187.826 226.217 C 188.405 226.568,189.129 227.025,189.435 227.233 C 190.520 227.969,196.164 231.325,196.317 231.325 C 196.402 231.325,197.237 231.909,198.172 232.623 C 199.107 233.336,200.020 233.920,200.202 233.920 C 200.383 233.920,202.031 234.921,203.863 236.145 C 205.695 237.368,207.342 238.369,207.524 238.369 C 207.706 238.369,208.157 238.703,208.526 239.110 C 208.895 239.518,209.364 239.852,209.568 239.852 C 209.772 239.852,210.455 240.244,211.086 240.724 C 214.131 243.037,216.332 243.394,218.388 241.906 C 219.081 241.404,220.262 240.656,221.013 240.243 C 221.764 239.830,222.488 239.313,222.623 239.094 C 222.759 238.876,223.771 238.270,224.873 237.748 C 225.975 237.226,226.880 236.694,226.884 236.565 C 226.888 236.436,227.731 235.829,228.757 235.218 C 231.973 233.302,235.198 231.207,235.698 230.711 C 235.961 230.448,236.879 229.893,237.736 229.477 C 238.594 229.061,240.325 228.014,241.584 227.150 C 242.842 226.286,244.796 225.019,245.927 224.335 C 247.057 223.651,248.194 222.835,248.453 222.523 C 248.712 222.211,249.593 221.664,250.412 221.306 C 251.230 220.948,252.268 220.304,252.719 219.874 C 253.169 219.444,253.639 219.092,253.764 219.092 C 253.889 219.092,254.688 218.621,255.540 218.046 C 256.393 217.471,257.632 216.784,258.295 216.519 C 258.957 216.253,259.500 215.913,259.500 215.763 C 259.500 215.486,263.679 212.790,264.107 212.790 C 264.235 212.790,265.419 211.952,266.738 210.929 C 268.057 209.905,269.595 208.871,270.157 208.631 C 270.718 208.391,271.928 207.662,272.845 207.011 C 273.763 206.360,275.348 205.365,276.367 204.800 C 277.386 204.234,279.138 203.090,280.259 202.258 C 281.381 201.425,282.906 200.409,283.649 200.001 C 284.392 199.593,286.016 198.546,287.256 197.674 C 288.497 196.803,289.808 195.982,290.169 195.850 C 290.530 195.717,291.804 194.929,293.002 194.098 C 294.199 193.266,295.875 192.169,296.726 191.659 C 297.577 191.149,298.829 190.399,299.508 189.991 C 300.187 189.583,301.180 188.909,301.715 188.493 C 302.250 188.078,303.130 187.547,303.671 187.313 C 304.211 187.080,305.629 186.150,306.822 185.247 C 308.014 184.345,309.558 183.315,310.253 182.959 C 310.948 182.603,312.533 181.602,313.775 180.735 C 315.017 179.869,316.408 179.042,316.865 178.898 C 317.323 178.753,317.907 178.426,318.163 178.171 C 318.982 177.353,322.595 174.909,323.783 174.370 C 324.414 174.083,325.931 173.109,327.155 172.207 C 328.378 171.304,329.556 170.557,329.773 170.547 C 329.989 170.537,330.526 170.193,330.967 169.782 C 331.790 169.015,334.265 167.417,336.675 166.097 C 338.550 165.070,343.003 161.996,343.516 161.374 C 343.977 160.816,342.612 154.666,341.587 152.685 C 341.293 152.116,340.725 150.351,340.324 148.763 C 338.110 139.975,337.837 139.638,334.180 141.169 M337.676 144.115 C 337.920 145.287,338.377 146.997,338.690 147.915 C 339.003 148.832,339.408 150.290,339.590 151.154 C 339.772 152.018,340.434 154.180,341.062 155.959 C 342.318 159.519,342.362 160.862,341.242 161.442 C 339.308 162.443,336.703 164.053,335.867 164.764 C 335.357 165.196,334.189 165.944,333.272 166.425 C 332.354 166.905,331.045 167.734,330.362 168.265 C 328.660 169.590,326.349 171.061,324.467 172.018 C 323.601 172.458,322.892 172.968,322.892 173.150 C 322.892 173.332,322.085 173.890,321.098 174.390 C 320.112 174.890,318.536 175.886,317.596 176.603 C 316.657 177.320,315.198 178.290,314.353 178.759 C 313.509 179.227,312.315 179.890,311.699 180.232 C 311.083 180.574,310.221 181.172,309.784 181.562 C 309.347 181.952,308.460 182.480,307.812 182.736 C 307.164 182.991,306.346 183.519,305.993 183.908 C 305.641 184.297,305.138 184.615,304.876 184.615 C 304.613 184.615,304.180 184.918,303.914 185.289 C 303.647 185.659,302.246 186.597,300.799 187.374 C 299.353 188.151,297.620 189.266,296.949 189.852 C 296.278 190.438,295.581 190.918,295.400 190.918 C 295.218 190.918,294.236 191.492,293.216 192.193 C 292.196 192.895,291.032 193.573,290.630 193.701 C 290.227 193.829,289.898 194.086,289.898 194.274 C 289.898 194.461,288.926 195.105,287.737 195.705 C 286.548 196.305,284.795 197.392,283.841 198.120 C 282.887 198.848,282.030 199.444,281.937 199.444 C 281.570 199.444,277.426 202.273,276.643 203.058 C 276.185 203.517,275.506 203.892,275.134 203.892 C 274.761 203.892,273.260 204.810,271.799 205.931 C 270.337 207.053,268.965 207.970,268.749 207.970 C 268.223 207.970,263.948 210.887,263.948 211.246 C 263.948 211.401,263.380 211.734,262.687 211.985 C 261.993 212.236,260.961 212.811,260.393 213.264 C 259.132 214.269,257.157 215.516,255.422 216.404 C 253.740 217.264,250.986 219.102,250.159 219.916 C 249.801 220.268,249.083 220.663,248.563 220.793 C 248.043 220.924,247.456 221.331,247.259 221.699 C 247.062 222.067,246.423 222.473,245.838 222.601 C 245.254 222.730,244.303 223.327,243.727 223.929 C 243.150 224.531,242.526 225.023,242.340 225.023 C 241.807 225.023,237.257 228.056,237.257 228.411 C 237.257 228.587,237.012 228.730,236.712 228.730 C 236.081 228.730,231.086 231.858,230.106 232.867 C 229.741 233.242,229.126 233.550,228.738 233.550 C 228.350 233.550,227.936 233.706,227.818 233.897 C 227.566 234.304,222.791 237.518,221.018 238.473 C 220.344 238.836,218.969 239.712,217.963 240.419 C 215.782 241.953,215.405 241.986,213.969 240.778 C 213.364 240.269,212.706 239.852,212.509 239.852 C 212.312 239.852,211.529 239.358,210.769 238.754 C 210.010 238.151,209.027 237.544,208.587 237.407 C 208.146 237.269,207.237 236.679,206.567 236.095 C 205.898 235.510,205.175 235.032,204.962 235.032 C 204.750 235.032,202.712 233.799,200.434 232.291 C 198.156 230.784,195.709 229.279,194.995 228.947 C 194.282 228.615,192.656 227.638,191.383 226.776 C 190.110 225.914,187.469 224.208,185.515 222.984 C 183.561 221.761,180.516 219.804,178.748 218.636 C 176.979 217.468,175.267 216.509,174.942 216.504 C 174.616 216.500,174.051 216.166,173.685 215.761 C 173.319 215.357,172.090 214.481,170.955 213.815 C 169.820 213.149,168.467 212.354,167.948 212.048 C 167.430 211.742,165.815 210.700,164.361 209.731 C 162.907 208.763,161.629 207.970,161.521 207.970 C 161.305 207.970,157.601 205.610,156.976 205.074 C 156.761 204.890,155.852 204.340,154.957 203.852 C 154.063 203.365,153.071 202.692,152.754 202.358 C 152.437 202.023,151.094 201.200,149.768 200.529 C 148.443 199.857,146.942 198.937,146.432 198.484 C 145.922 198.031,144.421 197.113,143.095 196.442 C 141.770 195.772,140.269 194.866,139.759 194.429 C 139.249 193.992,137.998 193.160,136.979 192.580 C 135.959 192.001,133.867 190.662,132.330 189.606 C 130.793 188.549,128.791 187.352,127.882 186.945 C 126.972 186.539,125.910 185.848,125.522 185.411 C 125.133 184.973,124.673 184.615,124.499 184.615 C 124.325 184.615,123.492 184.115,122.647 183.503 C 121.803 182.892,120.879 182.391,120.594 182.391 C 120.309 182.391,119.708 181.988,119.259 181.494 C 118.810 181.001,117.359 180.017,116.033 179.307 C 113.893 178.161,111.901 176.920,105.565 172.787 C 104.598 172.156,103.660 171.640,103.478 171.640 C 103.297 171.640,102.933 171.381,102.670 171.063 C 102.406 170.745,101.593 170.236,100.864 169.931 C 100.134 169.626,99.120 169.004,98.610 168.549 C 98.100 168.094,96.932 167.326,96.015 166.843 C 95.097 166.360,93.688 165.490,92.883 164.910 C 92.079 164.330,91.274 163.855,91.096 163.855 C 90.331 163.855,89.713 162.684,89.713 161.237 C 89.713 159.713,89.830 159.157,91.186 154.217 C 91.551 152.892,92.119 150.765,92.449 149.490 C 93.394 145.844,94.308 142.553,94.423 142.387 C 94.480 142.303,94.834 142.512,95.208 142.851 C 95.582 143.189,96.060 143.466,96.270 143.466 C 96.481 143.466,97.301 143.906,98.094 144.444 C 98.887 144.982,100.036 145.593,100.648 145.801 C 101.260 146.009,102.233 146.570,102.809 147.047 C 103.385 147.525,104.261 148.016,104.755 148.140 C 105.249 148.264,105.653 148.484,105.653 148.628 C 105.653 149.001,108.421 150.510,109.104 150.510 C 109.418 150.510,110.175 151.010,110.786 151.622 C 111.398 152.234,112.136 152.734,112.426 152.734 C 112.716 152.734,113.241 153.053,113.594 153.442 C 113.946 153.832,114.602 154.243,115.052 154.356 C 115.502 154.468,117.268 155.401,118.977 156.428 C 120.685 157.455,122.294 158.295,122.552 158.295 C 122.809 158.295,123.552 158.742,124.201 159.289 C 125.741 160.585,129.335 162.743,129.952 162.743 C 130.217 162.743,130.928 163.159,131.532 163.667 C 132.136 164.175,133.862 165.221,135.369 165.991 C 136.875 166.762,138.604 167.728,139.211 168.138 C 139.818 168.549,140.899 169.178,141.613 169.536 C 142.906 170.186,143.942 170.786,148.933 173.772 C 150.381 174.639,151.730 175.348,151.930 175.348 C 152.130 175.348,152.980 175.921,153.819 176.623 C 154.659 177.324,155.717 178.011,156.171 178.149 C 156.626 178.288,157.247 178.612,157.553 178.869 C 157.859 179.127,158.490 179.454,158.955 179.596 C 159.421 179.738,160.239 180.259,160.773 180.754 C 161.308 181.250,163.106 182.308,164.769 183.105 C 166.432 183.902,167.996 184.801,168.245 185.101 C 168.495 185.401,170.153 186.366,171.930 187.245 C 173.708 188.123,175.663 189.210,176.274 189.660 C 176.886 190.109,178.409 190.994,179.659 191.625 C 180.909 192.257,182.114 192.993,182.337 193.262 C 182.560 193.530,184.196 194.489,185.974 195.392 C 187.751 196.295,189.507 197.326,189.876 197.683 C 190.245 198.040,190.797 198.332,191.103 198.332 C 191.409 198.332,191.659 198.467,191.659 198.631 C 191.659 198.944,196.160 201.297,196.760 201.297 C 196.949 201.297,197.423 201.649,197.811 202.079 C 198.502 202.844,199.523 203.458,202.672 205.002 C 203.530 205.423,204.344 205.948,204.481 206.169 C 204.618 206.391,205.417 206.900,206.257 207.302 C 208.931 208.581,210.779 209.613,212.015 210.518 C 214.495 212.333,218.251 212.105,219.874 210.041 C 220.296 209.505,221.005 209.082,221.483 209.082 C 221.953 209.082,222.553 208.823,222.817 208.505 C 223.080 208.187,223.891 207.679,224.618 207.375 C 225.345 207.071,226.276 206.520,226.686 206.150 C 227.097 205.781,228.002 205.287,228.697 205.054 C 229.393 204.821,230.508 204.215,231.175 203.706 C 231.842 203.197,232.559 202.780,232.769 202.780 C 232.979 202.780,233.459 202.448,233.838 202.042 C 234.216 201.636,235.687 200.739,237.107 200.048 C 238.528 199.356,240.209 198.354,240.844 197.820 C 241.478 197.286,242.162 196.849,242.363 196.849 C 242.884 196.849,246.940 194.456,247.822 193.628 C 248.230 193.246,249.731 192.361,251.158 191.662 C 252.586 190.963,254.301 189.926,254.971 189.357 C 255.641 188.788,256.405 188.323,256.669 188.323 C 257.100 188.323,259.187 187.101,261.724 185.365 C 262.234 185.016,264.015 184.019,265.684 183.149 C 267.352 182.278,269.091 181.168,269.548 180.681 C 270.005 180.194,270.651 179.796,270.984 179.796 C 271.316 179.796,272.377 179.296,273.342 178.684 C 274.306 178.072,275.248 177.572,275.434 177.572 C 275.620 177.572,276.223 177.155,276.773 176.645 C 277.323 176.135,277.932 175.718,278.126 175.718 C 278.448 175.718,281.717 173.856,283.935 172.410 C 285.048 171.684,288.152 169.932,289.957 169.011 C 290.704 168.630,291.371 168.174,291.440 167.997 C 291.510 167.820,292.894 166.979,294.517 166.128 C 296.140 165.277,297.808 164.266,298.224 163.883 C 298.640 163.499,299.564 162.913,300.278 162.582 C 302.163 161.705,305.090 160.104,306.779 159.025 C 308.814 157.726,309.523 157.303,311.096 156.450 C 311.847 156.043,312.574 155.527,312.713 155.304 C 312.851 155.080,313.655 154.581,314.499 154.196 C 316.837 153.128,319.327 151.677,319.741 151.143 C 319.944 150.880,320.890 150.370,321.843 150.011 C 322.795 149.652,323.775 149.117,324.020 148.822 C 324.265 148.527,324.682 148.285,324.947 148.285 C 325.213 148.285,325.964 147.836,326.618 147.286 C 327.271 146.736,328.577 145.905,329.519 145.439 C 331.495 144.463,333.069 143.553,334.373 142.631 C 336.247 141.307,337.177 141.725,337.676 144.115 M343.800 173.409 C 343.005 173.973,341.871 174.648,341.280 174.908 C 340.690 175.168,339.772 175.714,339.241 176.122 C 337.699 177.305,334.426 179.425,334.140 179.425 C 333.997 179.425,332.700 180.218,331.258 181.186 C 329.817 182.155,328.190 183.197,327.643 183.503 C 327.096 183.809,325.511 184.829,324.121 185.770 C 322.731 186.711,321.154 187.712,320.617 187.994 C 320.080 188.277,318.629 189.217,317.394 190.083 C 316.158 190.950,315.009 191.659,314.841 191.659 C 314.673 191.659,313.097 192.618,311.340 193.791 C 309.583 194.963,307.668 196.213,307.085 196.568 C 304.454 198.170,299.477 201.298,296.884 202.979 C 290.754 206.953,288.405 208.383,287.139 208.912 C 286.414 209.215,285.820 209.601,285.820 209.770 C 285.820 209.939,285.028 210.532,284.059 211.089 C 280.778 212.975,279.570 213.740,278.865 214.378 C 278.479 214.728,277.987 215.014,277.773 215.014 C 277.560 215.014,277.174 215.267,276.917 215.577 C 276.660 215.886,275.848 216.418,275.111 216.758 C 274.375 217.098,273.293 217.768,272.708 218.248 C 272.122 218.727,271.122 219.366,270.484 219.669 C 269.232 220.261,266.766 221.776,263.378 224.033 C 262.206 224.814,260.870 225.596,260.409 225.771 C 259.949 225.946,259.461 226.269,259.326 226.487 C 258.995 227.022,255.526 229.205,254.058 229.802 C 253.410 230.065,252.581 230.612,252.214 231.017 C 251.848 231.422,250.460 232.358,249.129 233.098 C 246.655 234.474,240.774 238.166,239.110 239.389 C 238.601 239.764,236.932 240.802,235.403 241.696 C 233.874 242.590,232.271 243.632,231.841 244.012 C 231.410 244.392,230.109 245.195,228.949 245.797 C 227.789 246.399,225.781 247.632,224.487 248.536 C 223.193 249.440,221.314 250.596,220.312 251.104 C 219.309 251.612,218.271 252.291,218.004 252.612 C 217.182 253.603,214.472 253.368,212.671 252.149 C 211.819 251.573,210.204 250.578,209.082 249.939 C 207.961 249.300,206.564 248.358,205.979 247.847 C 205.393 247.335,204.577 246.809,204.164 246.679 C 203.752 246.548,201.957 245.500,200.175 244.351 C 196.216 241.798,193.136 239.845,189.454 237.555 C 187.914 236.597,186.321 235.542,185.913 235.209 C 185.505 234.877,184.572 234.294,183.840 233.914 C 183.107 233.534,180.730 232.045,178.558 230.606 C 176.386 229.167,174.483 227.988,174.329 227.988 C 174.176 227.988,173.466 227.487,172.753 226.877 C 172.039 226.266,171.297 225.766,171.104 225.765 C 170.757 225.765,169.703 225.108,165.650 222.365 C 164.496 221.584,163.444 220.945,163.313 220.945 C 162.949 220.945,158.498 217.889,158.357 217.542 C 158.289 217.375,157.994 217.238,157.702 217.238 C 157.082 217.238,153.195 214.764,152.320 213.812 C 151.990 213.454,151.550 213.160,151.341 213.160 C 151.132 213.160,149.437 212.159,147.574 210.936 C 145.711 209.713,144.025 208.712,143.826 208.712 C 143.628 208.712,143.464 208.587,143.460 208.434 C 143.457 208.281,142.623 207.748,141.607 207.249 C 140.591 206.750,139.759 206.234,139.759 206.103 C 139.759 205.971,138.883 205.388,137.813 204.805 C 136.742 204.223,135.543 203.446,135.148 203.078 C 134.753 202.710,134.246 202.410,134.022 202.410 C 133.798 202.410,133.037 201.916,132.331 201.313 C 131.625 200.709,130.827 200.209,130.558 200.200 C 130.037 200.184,127.079 198.251,125.880 197.142 C 125.485 196.777,125.031 196.478,124.872 196.478 C 124.346 196.478,119.194 193.017,118.700 192.331 C 118.434 191.962,117.991 191.659,117.716 191.659 C 117.029 191.659,114.180 190.110,114.180 189.737 C 114.180 189.571,113.961 189.435,113.694 189.435 C 113.426 189.435,112.849 189.101,112.412 188.693 C 111.974 188.285,111.537 187.952,111.440 187.952 C 111.128 187.952,107.373 185.595,105.693 184.345 C 104.797 183.678,103.927 183.133,103.759 183.133 C 103.591 183.133,101.954 182.132,100.123 180.908 C 98.291 179.685,96.691 178.684,96.568 178.684 C 96.445 178.684,95.311 177.977,94.048 177.113 C 86.969 172.271,84.523 171.667,84.523 174.763 C 84.523 175.586,84.037 177.375,83.408 178.869 C 83.039 179.747,82.684 181.303,82.415 183.228 C 82.308 183.993,82.071 184.712,81.889 184.825 C 81.706 184.938,81.557 185.511,81.557 186.098 C 81.557 186.686,81.390 187.270,81.186 187.396 C 80.982 187.522,80.816 188.350,80.816 189.236 C 80.816 190.122,80.400 192.072,79.891 193.570 C 78.594 197.392,78.981 198.469,82.324 200.342 C 83.024 200.734,84.542 201.776,85.699 202.659 C 86.856 203.541,87.970 204.263,88.173 204.263 C 88.377 204.263,89.016 204.661,89.594 205.147 C 90.172 205.634,91.161 206.343,91.792 206.723 C 92.424 207.103,94.487 208.499,96.379 209.824 C 98.270 211.149,100.111 212.406,100.470 212.618 C 101.649 213.312,104.342 215.150,105.097 215.776 C 105.505 216.114,106.423 216.706,107.136 217.092 C 107.850 217.478,108.517 217.879,108.619 217.982 C 109.034 218.402,111.817 220.438,112.922 221.131 C 114.118 221.880,124.698 229.028,129.662 232.440 C 131.143 233.458,132.442 234.291,132.548 234.291 C 132.655 234.291,133.796 235.083,135.084 236.052 C 136.372 237.020,137.909 238.098,138.500 238.447 C 139.888 239.266,150.298 246.349,153.661 248.762 C 156.635 250.896,160.289 253.334,162.532 254.680 C 163.381 255.190,165.341 256.566,166.888 257.739 C 168.434 258.911,169.824 259.870,169.976 259.870 C 170.128 259.870,171.357 260.666,172.707 261.638 C 176.300 264.225,177.488 265.046,180.167 266.794 C 181.492 267.659,183.401 268.999,184.409 269.772 C 185.417 270.545,186.765 271.427,187.404 271.733 C 188.043 272.039,189.080 272.706,189.709 273.216 C 191.543 274.703,198.224 279.258,199.887 280.157 C 200.727 280.610,201.763 281.289,202.190 281.667 C 202.616 282.044,203.883 282.911,205.005 283.595 C 206.992 284.805,210.936 287.621,211.307 288.093 C 213.410 290.771,217.455 289.903,222.664 285.656 C 223.304 285.135,223.975 284.708,224.155 284.708 C 224.335 284.708,225.913 283.749,227.662 282.576 C 229.410 281.404,231.545 280.028,232.407 279.518 C 233.268 279.008,234.644 278.049,235.465 277.386 C 236.285 276.724,237.159 276.182,237.407 276.182 C 237.655 276.182,238.207 275.857,238.633 275.460 C 239.324 274.817,240.424 274.053,246.466 270.026 C 247.351 269.436,248.792 268.536,249.667 268.026 C 250.543 267.516,252.431 266.265,253.863 265.246 C 256.296 263.514,258.575 262.008,262.838 259.314 C 263.806 258.703,265.828 257.379,267.331 256.374 C 274.326 251.696,276.043 250.602,276.388 250.602 C 276.592 250.602,277.000 250.269,277.294 249.861 C 277.588 249.453,277.984 249.120,278.173 249.120 C 278.363 249.120,279.202 248.620,280.038 248.009 C 282.080 246.517,287.660 242.817,287.870 242.817 C 288.043 242.817,292.486 239.904,293.791 238.935 C 295.008 238.031,299.129 235.270,300.396 234.510 C 301.045 234.121,302.720 233.037,304.118 232.100 C 305.516 231.164,307.215 230.059,307.893 229.645 C 308.570 229.230,309.441 228.604,309.828 228.254 C 310.215 227.904,310.647 227.618,310.789 227.618 C 311.163 227.618,316.564 224.008,318.485 222.474 C 319.092 221.989,320.234 221.239,321.024 220.806 C 321.814 220.373,323.433 219.361,324.622 218.558 C 325.811 217.755,328.234 216.170,330.006 215.036 C 331.779 213.903,333.726 212.641,334.333 212.234 C 334.940 211.826,337.856 209.866,340.811 207.878 C 343.767 205.890,346.335 204.263,346.517 204.263 C 346.700 204.263,347.329 203.763,347.915 203.151 C 348.501 202.539,349.170 202.039,349.401 202.039 C 349.632 202.039,350.477 201.543,351.278 200.937 C 352.079 200.331,352.903 199.831,353.109 199.825 C 354.730 199.780,356.041 196.892,354.828 196.036 C 354.451 195.769,353.952 194.968,353.719 194.254 C 352.582 190.768,351.435 186.736,351.420 186.172 C 351.411 185.825,351.152 184.875,350.843 184.059 C 350.184 182.316,349.022 178.589,348.246 175.729 C 347.295 172.221,346.244 171.673,343.800 173.409 M346.625 175.486 C 346.630 175.919,346.939 176.947,347.313 177.769 C 347.686 178.592,348.111 180.093,348.256 181.106 C 348.401 182.119,348.936 183.755,349.444 184.742 C 349.952 185.730,350.463 187.398,350.579 188.450 C 350.695 189.501,351.085 190.945,351.444 191.659 C 353.009 194.766,352.960 199.444,351.361 199.444 C 350.791 199.444,345.876 202.415,345.876 202.760 C 345.876 202.906,345.417 203.258,344.856 203.543 C 344.296 203.827,343.365 204.439,342.789 204.903 C 342.213 205.367,341.533 205.746,341.278 205.746 C 341.023 205.746,340.411 206.183,339.916 206.718 C 339.422 207.252,338.348 207.980,337.530 208.335 C 336.711 208.690,335.815 209.254,335.538 209.588 C 335.261 209.922,334.810 210.195,334.537 210.195 C 334.263 210.195,333.861 210.528,333.642 210.936 C 333.424 211.344,333.071 211.677,332.858 211.677 C 332.645 211.677,331.591 212.261,330.516 212.975 C 329.441 213.689,328.399 214.272,328.200 214.272 C 328.002 214.272,327.436 214.704,326.941 215.232 C 326.447 215.759,325.484 216.425,324.801 216.711 C 324.117 216.997,322.760 217.900,321.783 218.718 C 320.807 219.535,319.848 220.204,319.652 220.204 C 319.456 220.204,318.605 220.704,317.760 221.316 C 316.916 221.928,316.083 222.428,315.909 222.428 C 315.735 222.428,315.274 222.786,314.886 223.223 C 314.498 223.661,313.513 224.328,312.697 224.707 C 311.881 225.085,310.588 225.854,309.822 226.414 C 306.689 228.707,301.969 231.882,299.765 233.179 C 298.899 233.689,297.720 234.481,297.145 234.940 C 296.570 235.399,295.878 235.774,295.607 235.774 C 295.336 235.774,294.948 236.085,294.745 236.464 C 294.541 236.844,293.826 237.376,293.156 237.646 C 291.969 238.123,291.132 238.676,288.680 240.602 C 288.024 241.116,286.905 241.829,286.191 242.186 C 284.748 242.907,282.605 244.355,281.722 245.205 C 281.405 245.511,280.522 246.021,279.760 246.340 C 278.997 246.658,278.280 247.164,278.165 247.463 C 278.050 247.762,277.800 248.007,277.610 248.007 C 277.309 248.007,275.219 249.339,274.699 249.862 C 274.209 250.355,271.395 252.102,270.158 252.683 C 269.393 253.041,268.767 253.480,268.767 253.658 C 268.767 253.835,268.058 254.315,267.192 254.723 C 265.368 255.583,263.347 256.930,262.267 258.006 C 261.852 258.420,261.318 258.758,261.081 258.758 C 260.844 258.758,260.200 259.175,259.650 259.685 C 259.100 260.195,258.466 260.613,258.241 260.615 C 258.015 260.617,257.099 261.201,256.204 261.913 C 255.308 262.624,254.374 263.207,254.127 263.207 C 253.880 263.207,253.170 263.665,252.549 264.226 C 251.296 265.357,250.282 266.033,246.061 268.548 C 244.481 269.490,243.188 270.407,243.188 270.586 C 243.188 270.765,242.535 271.172,241.737 271.492 C 240.939 271.811,240.175 272.252,240.040 272.470 C 239.904 272.689,237.930 274.097,235.652 275.598 C 233.374 277.099,231.122 278.669,230.646 279.086 C 230.171 279.502,229.316 279.946,228.746 280.071 C 228.177 280.196,227.315 280.721,226.831 281.238 C 226.346 281.755,224.923 282.752,223.668 283.455 C 222.413 284.158,221.183 284.977,220.935 285.276 C 220.687 285.575,220.241 285.820,219.945 285.820 C 219.648 285.820,218.876 286.361,218.229 287.022 C 216.664 288.621,213.953 288.727,212.670 287.238 C 211.897 286.341,207.931 283.596,207.408 283.596 C 207.270 283.596,206.441 282.970,205.565 282.206 C 204.690 281.441,203.329 280.487,202.543 280.086 C 201.756 279.685,200.564 278.892,199.894 278.325 C 199.225 277.758,198.524 277.294,198.337 277.294 C 197.995 277.294,194.598 275.125,194.254 274.687 C 194.023 274.392,188.707 270.695,187.075 269.694 C 186.411 269.286,185.396 268.577,184.820 268.119 C 184.245 267.660,183.572 267.285,183.325 267.285 C 183.079 267.285,182.559 266.929,182.171 266.495 C 181.484 265.728,179.830 264.536,177.347 263.021 C 176.679 262.614,174.974 261.487,173.558 260.519 C 172.143 259.551,170.883 258.758,170.758 258.758 C 170.634 258.758,169.222 257.757,167.622 256.534 C 166.021 255.310,164.610 254.310,164.486 254.310 C 164.362 254.310,163.153 253.482,161.799 252.470 C 160.446 251.458,159.029 250.532,158.650 250.412 C 158.272 250.292,157.435 249.702,156.792 249.101 C 156.148 248.499,155.415 248.007,155.162 248.007 C 154.909 248.007,154.411 247.686,154.055 247.292 C 153.699 246.899,152.881 246.309,152.237 245.982 C 151.593 245.654,150.315 244.812,149.398 244.109 C 148.480 243.407,147.229 242.556,146.617 242.217 C 146.006 241.879,144.957 241.125,144.287 240.542 C 143.618 239.958,142.843 239.481,142.566 239.481 C 142.289 239.481,141.980 239.272,141.878 239.018 C 141.777 238.763,141.050 238.226,140.263 237.826 C 139.476 237.425,138.582 236.884,138.276 236.622 C 136.627 235.213,134.123 233.550,133.652 233.550 C 133.355 233.550,132.626 233.091,132.033 232.530 C 131.118 231.665,126.990 228.677,124.991 227.433 C 124.663 227.229,123.657 226.520,122.756 225.857 C 121.854 225.195,120.911 224.652,120.659 224.652 C 120.408 224.652,119.981 224.386,119.710 224.060 C 119.148 223.382,114.373 220.204,113.918 220.204 C 113.752 220.204,113.408 219.870,113.154 219.462 C 112.899 219.055,112.395 218.721,112.034 218.721 C 111.673 218.721,111.132 218.373,110.833 217.948 C 110.533 217.523,109.817 216.929,109.242 216.628 C 108.667 216.326,107.223 215.340,106.033 214.435 C 104.843 213.530,103.703 212.790,103.499 212.790 C 103.295 212.790,102.430 212.206,101.576 211.492 C 100.721 210.778,99.814 210.195,99.559 210.195 C 99.304 210.195,98.815 209.885,98.473 209.507 C 98.131 209.129,97.104 208.435,96.191 207.966 C 95.279 207.496,94.532 206.976,94.532 206.809 C 94.532 206.643,93.990 206.229,93.327 205.889 C 92.665 205.550,92.039 205.153,91.937 205.008 C 91.835 204.863,91.335 204.528,90.825 204.264 C 90.315 203.999,89.398 203.378,88.786 202.884 C 87.300 201.685,85.365 200.374,83.781 199.495 C 80.733 197.803,80.235 194.912,82.111 189.798 C 83.002 187.368,83.392 185.704,83.402 184.288 C 83.407 183.599,83.721 182.515,84.101 181.879 C 84.480 181.243,84.989 179.472,85.231 177.943 C 85.474 176.413,85.826 175.009,86.013 174.821 C 86.547 174.287,89.178 175.321,90.320 176.513 C 90.878 177.095,91.530 177.572,91.770 177.572 C 92.010 177.572,92.835 178.072,93.605 178.684 C 94.375 179.296,95.265 179.796,95.582 179.796 C 95.900 179.796,96.586 180.193,97.107 180.679 C 97.628 181.164,99.083 182.106,100.340 182.772 C 101.597 183.438,103.099 184.391,103.676 184.890 C 104.254 185.389,105.227 186.055,105.839 186.371 C 106.450 186.686,107.349 187.255,107.835 187.634 C 108.321 188.012,109.012 188.323,109.371 188.323 C 109.729 188.323,110.116 188.566,110.230 188.864 C 110.344 189.161,111.238 189.829,112.216 190.347 C 113.194 190.866,114.411 191.609,114.921 191.999 C 115.431 192.390,117.270 193.599,119.008 194.686 C 120.745 195.774,122.433 196.830,122.758 197.034 C 123.083 197.238,124.331 198.077,125.530 198.899 C 126.729 199.721,128.247 200.615,128.903 200.885 C 129.559 201.156,130.299 201.623,130.548 201.922 C 130.797 202.222,131.818 202.913,132.818 203.458 C 136.279 205.345,136.719 205.618,137.894 206.606 C 138.543 207.153,139.286 207.600,139.545 207.600 C 139.803 207.600,140.317 207.933,140.686 208.341 C 141.055 208.749,141.633 209.082,141.971 209.082 C 142.309 209.082,143.054 209.571,143.626 210.168 C 144.198 210.765,145.181 211.466,145.811 211.727 C 146.441 211.988,147.255 212.501,147.621 212.866 C 147.986 213.232,148.472 213.531,148.699 213.531 C 148.927 213.531,149.886 214.089,150.831 214.770 C 151.776 215.451,152.799 216.124,153.105 216.265 C 153.973 216.664,161.154 221.212,163.251 222.690 C 163.889 223.140,165.663 224.257,167.192 225.171 C 168.721 226.085,170.362 227.177,170.838 227.597 C 171.314 228.016,171.854 228.360,172.037 228.360 C 172.478 228.360,176.072 230.527,177.016 231.361 C 177.713 231.978,181.048 234.083,187.025 237.679 C 188.452 238.538,190.037 239.604,190.547 240.048 C 191.057 240.493,192.736 241.543,194.279 242.381 C 195.822 243.220,197.391 244.245,197.765 244.660 C 198.140 245.074,198.634 245.412,198.862 245.412 C 199.249 245.412,201.961 247.077,205.788 249.663 C 206.682 250.267,208.165 251.116,209.082 251.550 C 210.000 251.983,211.001 252.641,211.307 253.010 C 213.269 255.383,217.580 255.190,220.696 252.589 C 221.272 252.108,221.915 251.715,222.125 251.715 C 222.335 251.715,223.002 251.297,223.608 250.788 C 224.214 250.278,224.934 249.861,225.209 249.861 C 225.483 249.861,226.179 249.478,226.756 249.009 C 227.952 248.037,232.345 245.412,232.777 245.412 C 232.935 245.412,233.382 245.061,233.770 244.631 C 234.159 244.201,235.302 243.431,236.311 242.919 C 237.320 242.408,238.988 241.366,240.018 240.605 C 241.048 239.843,242.892 238.666,244.115 237.989 C 245.338 237.312,246.887 236.286,247.557 235.710 C 248.227 235.133,248.979 234.662,249.229 234.662 C 249.479 234.662,250.833 233.869,252.239 232.901 C 255.388 230.730,257.000 229.754,259.036 228.782 C 259.903 228.369,260.612 227.863,260.612 227.658 C 260.612 227.454,262.071 226.502,263.855 225.543 C 265.639 224.584,267.516 223.430,268.026 222.978 C 268.536 222.526,270.079 221.536,271.455 220.777 C 272.831 220.019,273.957 219.240,273.957 219.047 C 273.957 218.853,274.666 218.362,275.533 217.956 C 277.612 216.981,279.683 215.702,280.719 214.754 C 281.180 214.332,281.974 213.861,282.484 213.707 C 282.994 213.553,283.828 213.105,284.337 212.711 C 285.916 211.491,288.826 209.686,290.985 208.589 C 292.120 208.012,293.550 207.071,294.161 206.498 C 294.773 205.926,295.690 205.336,296.200 205.188 C 296.710 205.040,297.461 204.624,297.868 204.264 C 298.276 203.903,299.144 203.339,299.796 203.009 C 300.449 202.679,301.116 202.180,301.279 201.900 C 301.442 201.619,302.660 200.851,303.985 200.191 C 305.310 199.532,306.728 198.693,307.136 198.326 C 307.991 197.558,310.990 195.677,312.882 194.723 C 313.596 194.363,314.408 193.762,314.686 193.388 C 314.965 193.014,315.883 192.388,316.725 191.997 C 318.757 191.054,320.525 189.967,321.497 189.061 C 321.933 188.655,322.512 188.323,322.784 188.323 C 323.373 188.323,326.036 186.666,327.343 185.487 C 328.233 184.685,329.560 183.879,333.318 181.863 C 334.261 181.357,335.132 180.685,335.253 180.369 C 335.374 180.054,335.802 179.796,336.204 179.796 C 336.606 179.796,337.040 179.627,337.167 179.420 C 337.295 179.213,338.097 178.690,338.950 178.258 C 339.803 177.826,341.048 176.994,341.718 176.410 C 342.388 175.826,343.112 175.348,343.328 175.348 C 343.544 175.348,344.145 175.013,344.665 174.604 C 345.748 173.752,346.611 174.140,346.625 175.486 M174.005 311.770 C 174.005 314.115,174.065 315.074,174.139 313.902 C 174.212 312.729,174.212 310.811,174.139 309.639 C 174.065 308.466,174.005 309.425,174.005 311.770 M119.114 316.033 C 119.116 317.257,119.185 317.712,119.268 317.046 C 119.350 316.380,119.349 315.379,119.264 314.822 C 119.179 314.265,119.112 314.810,119.114 316.033 "
            stroke="none" fill="#638a4b" fill-rule="evenodd"></path>
        <text xmlns="http://www.w3.org/2000/svg" x="85" y="330" font-family="Verdana" font-size="45" fill="#375990">CitiThrive</text>
        <path id="path3"
            d="M215.841 67.490 C 215.174 67.633,213.997 68.187,213.226 68.722 C 212.454 69.257,211.629 69.694,211.391 69.694 C 211.154 69.694,209.578 70.383,207.889 71.225 C 206.201 72.067,204.152 73.074,203.336 73.463 C 202.521 73.851,201.603 74.330,201.297 74.527 C 200.992 74.724,199.907 75.304,198.888 75.817 C 197.868 76.329,196.617 76.992,196.108 77.291 C 195.598 77.589,193.846 78.450,192.215 79.205 C 190.584 79.959,188.982 80.801,188.655 81.075 C 188.327 81.350,187.216 81.871,186.185 82.234 C 185.154 82.598,184.087 83.076,183.814 83.298 C 183.541 83.520,182.484 84.105,181.464 84.598 C 180.445 85.091,179.277 85.686,178.869 85.919 C 178.462 86.153,176.793 86.959,175.162 87.710 C 173.531 88.462,171.938 89.299,171.622 89.570 C 171.306 89.842,170.313 90.323,169.416 90.639 C 168.519 90.956,167.478 91.544,167.103 91.947 C 166.728 92.349,166.136 92.679,165.787 92.680 C 165.438 92.681,164.652 92.983,164.041 93.351 C 163.429 93.719,162.178 94.317,161.260 94.680 C 160.343 95.042,158.006 96.228,156.068 97.315 C 154.129 98.402,152.098 99.404,151.553 99.540 C 151.009 99.677,150.481 100.003,150.381 100.264 C 150.281 100.525,149.727 100.853,149.149 100.992 C 147.721 101.338,146.061 102.075,146.061 102.364 C 146.061 102.495,145.102 102.981,143.930 103.446 C 142.757 103.910,141.548 104.485,141.242 104.723 C 140.156 105.570,137.323 107.039,135.496 107.702 C 134.476 108.071,133.392 108.569,133.086 108.807 C 132.190 109.506,127.142 111.956,126.598 111.956 C 126.324 111.956,125.628 112.350,125.052 112.832 C 124.475 113.313,123.587 113.834,123.077 113.988 C 122.567 114.142,121.900 114.485,121.594 114.750 C 121.288 115.016,120.120 115.593,118.999 116.033 C 117.878 116.473,116.710 117.047,116.404 117.309 C 116.098 117.570,114.513 118.409,112.882 119.173 C 108.716 121.124,102.451 124.293,101.746 124.804 C 101.009 125.340,101.838 126.499,103.614 127.417 C 104.226 127.733,106.311 129.037,108.248 130.316 C 110.185 131.595,112.428 132.950,113.232 133.327 C 114.037 133.704,115.072 134.359,115.533 134.782 C 115.995 135.205,117.589 136.186,119.076 136.963 C 120.563 137.739,122.340 138.864,123.025 139.462 C 123.711 140.061,124.628 140.703,125.064 140.890 C 125.500 141.076,126.460 141.607,127.196 142.070 C 127.933 142.532,129.768 143.638,131.274 144.528 C 132.780 145.418,134.665 146.585,135.463 147.123 C 137.373 148.411,139.187 149.510,141.300 150.660 C 142.249 151.176,143.083 151.752,143.153 151.938 C 143.224 152.124,144.615 152.981,146.247 153.841 C 147.878 154.701,149.546 155.689,149.954 156.036 C 150.361 156.382,151.779 157.313,153.105 158.103 C 154.430 158.893,156.095 160.010,156.804 160.585 C 157.513 161.160,158.364 161.631,158.694 161.631 C 159.025 161.631,159.986 162.132,160.831 162.743 C 161.675 163.355,162.514 163.855,162.695 163.855 C 162.875 163.855,163.233 164.108,163.488 164.416 C 163.744 164.724,164.948 165.506,166.164 166.154 C 167.379 166.802,168.817 167.802,169.358 168.376 C 169.900 168.950,170.908 169.606,171.599 169.834 C 173.079 170.323,177.572 173.077,177.572 173.495 C 177.572 173.654,178.031 173.897,178.591 174.035 C 179.152 174.172,180.945 175.170,182.576 176.251 C 184.208 177.333,185.978 178.448,186.510 178.729 C 188.095 179.566,190.337 181.135,190.876 181.785 C 191.153 182.118,191.679 182.391,192.047 182.391 C 192.414 182.391,193.186 182.778,193.762 183.250 C 194.338 183.723,195.344 184.323,195.997 184.585 C 196.649 184.847,197.425 185.430,197.720 185.881 C 198.016 186.331,198.922 186.899,199.733 187.142 C 200.545 187.385,201.417 187.834,201.670 188.139 C 201.923 188.444,202.278 188.693,202.459 188.693 C 202.640 188.693,204.259 189.694,206.058 190.918 C 207.856 192.141,209.497 193.142,209.704 193.142 C 209.910 193.142,210.385 193.480,210.759 193.892 C 212.632 195.962,217.403 197.470,218.641 196.383 C 218.991 196.076,219.632 195.717,220.066 195.585 C 220.500 195.453,221.334 194.923,221.919 194.407 C 222.505 193.891,223.438 193.227,223.993 192.931 C 225.251 192.260,227.563 190.764,228.545 189.986 C 229.658 189.104,232.035 187.727,234.013 186.817 C 234.981 186.371,235.774 185.864,235.774 185.689 C 235.774 185.515,236.411 185.047,237.189 184.650 C 237.967 184.253,238.813 183.676,239.068 183.369 C 239.323 183.061,240.007 182.705,240.587 182.578 C 241.168 182.450,242.147 181.897,242.765 181.349 C 244.636 179.686,245.921 178.802,246.895 178.509 C 247.405 178.356,248.239 177.864,248.749 177.417 C 249.798 176.496,254.081 173.865,254.530 173.865 C 254.692 173.865,255.251 173.461,255.772 172.968 C 256.293 172.474,257.702 171.564,258.903 170.945 C 260.104 170.325,261.451 169.476,261.896 169.058 C 262.825 168.185,266.842 165.709,267.329 165.709 C 267.509 165.709,267.982 165.382,268.381 164.983 C 268.781 164.584,269.751 163.929,270.538 163.527 C 271.324 163.126,272.186 162.535,272.452 162.214 C 272.718 161.894,273.108 161.631,273.319 161.631 C 273.530 161.631,274.302 161.172,275.035 160.612 C 276.459 159.522,277.555 158.853,280.352 157.365 C 281.321 156.850,282.113 156.259,282.113 156.051 C 282.113 155.843,282.845 155.359,283.740 154.976 C 284.635 154.592,285.477 154.102,285.609 153.887 C 285.742 153.672,286.595 153.168,287.504 152.765 C 288.413 152.363,289.157 151.870,289.157 151.670 C 289.157 151.469,290.418 150.667,291.960 149.888 C 293.503 149.109,295.072 148.186,295.449 147.839 C 296.321 147.033,299.782 144.866,301.112 144.292 C 301.673 144.051,302.132 143.674,302.132 143.455 C 302.132 143.237,302.757 142.800,303.522 142.485 C 305.031 141.863,308.763 139.546,309.361 138.859 C 309.878 138.264,313.306 136.203,314.305 135.886 C 314.759 135.742,315.509 135.261,315.972 134.818 C 316.824 134.004,317.641 133.487,320.667 131.846 C 321.585 131.349,322.653 130.590,323.042 130.161 C 323.430 129.731,323.877 129.379,324.035 129.379 C 324.686 129.379,328.823 126.349,328.823 125.872 C 328.823 125.588,328.364 125.117,327.804 124.825 C 327.243 124.534,325.867 123.827,324.745 123.255 C 323.624 122.684,322.206 121.848,321.594 121.398 C 320.982 120.948,319.981 120.461,319.370 120.316 C 318.758 120.172,318.001 119.823,317.688 119.540 C 317.375 119.258,316.374 118.676,315.464 118.247 C 314.554 117.818,313.392 117.232,312.882 116.945 C 312.373 116.659,311.205 116.088,310.287 115.676 C 308.401 114.830,306.463 113.692,305.148 112.657 C 304.657 112.271,303.929 111.956,303.529 111.956 C 303.129 111.956,302.359 111.645,301.818 111.265 C 301.277 110.885,300.042 110.227,299.073 109.803 C 298.105 109.379,297.312 108.873,297.312 108.680 C 297.312 108.487,296.861 108.215,296.309 108.077 C 294.717 107.677,290.183 105.366,289.004 104.353 C 288.413 103.845,287.645 103.429,287.297 103.429 C 286.950 103.429,286.016 102.989,285.224 102.451 C 284.431 101.913,283.281 101.308,282.670 101.106 C 282.058 100.904,281.383 100.526,281.171 100.266 C 280.959 100.005,280.120 99.613,279.308 99.394 C 278.495 99.176,277.260 98.576,276.563 98.062 C 275.866 97.548,275.101 97.127,274.863 97.127 C 274.625 97.127,273.800 96.627,273.031 96.015 C 272.261 95.403,271.353 94.903,271.013 94.903 C 270.673 94.903,269.606 94.402,268.642 93.791 C 267.677 93.179,266.650 92.678,266.359 92.678 C 266.068 92.678,265.521 92.346,265.142 91.940 C 264.764 91.533,263.715 90.976,262.811 90.701 C 261.907 90.426,260.519 89.758,259.726 89.215 C 258.933 88.673,258.077 88.230,257.825 88.230 C 257.573 88.230,257.165 87.988,256.920 87.693 C 256.675 87.397,255.862 86.957,255.114 86.714 C 254.366 86.472,253.336 85.992,252.827 85.648 C 252.317 85.304,251.316 84.800,250.602 84.528 C 249.889 84.256,249.055 83.746,248.749 83.394 C 248.443 83.043,247.525 82.550,246.710 82.300 C 245.894 82.050,244.810 81.580,244.300 81.255 C 243.469 80.727,241.888 79.873,234.569 76.001 C 233.397 75.381,232.437 74.728,232.437 74.549 C 232.437 74.371,231.895 74.123,231.233 73.998 C 230.570 73.872,229.444 73.406,228.730 72.962 C 227.057 71.920,222.699 69.697,222.328 69.695 C 222.170 69.695,221.406 69.274,220.629 68.759 C 218.804 67.551,217.350 67.166,215.841 67.490 M334.373 142.631 C 333.069 143.553,331.495 144.463,329.519 145.439 C 328.577 145.905,327.271 146.736,326.618 147.286 C 325.964 147.836,325.213 148.285,324.947 148.285 C 324.682 148.285,324.265 148.527,324.020 148.822 C 323.775 149.117,322.795 149.652,321.843 150.011 C 320.890 150.370,319.944 150.880,319.741 151.143 C 319.327 151.677,316.837 153.128,314.499 154.196 C 313.655 154.581,312.851 155.080,312.713 155.304 C 312.574 155.527,311.847 156.043,311.096 156.450 C 309.523 157.303,308.814 157.726,306.779 159.025 C 305.090 160.104,302.163 161.705,300.278 162.582 C 299.564 162.913,298.640 163.499,298.224 163.883 C 297.808 164.266,296.140 165.277,294.517 166.128 C 292.894 166.979,291.510 167.820,291.440 167.997 C 291.371 168.174,290.704 168.630,289.957 169.011 C 288.152 169.932,285.048 171.684,283.935 172.410 C 281.717 173.856,278.448 175.718,278.126 175.718 C 277.932 175.718,277.323 176.135,276.773 176.645 C 276.223 177.155,275.620 177.572,275.434 177.572 C 275.248 177.572,274.306 178.072,273.342 178.684 C 272.377 179.296,271.316 179.796,270.984 179.796 C 270.651 179.796,270.005 180.194,269.548 180.681 C 269.091 181.168,267.352 182.278,265.684 183.149 C 264.015 184.019,262.234 185.016,261.724 185.365 C 259.187 187.101,257.100 188.323,256.669 188.323 C 256.405 188.323,255.641 188.788,254.971 189.357 C 254.301 189.926,252.586 190.963,251.158 191.662 C 249.731 192.361,248.230 193.246,247.822 193.628 C 246.940 194.456,242.884 196.849,242.363 196.849 C 242.162 196.849,241.478 197.286,240.844 197.820 C 240.209 198.354,238.528 199.356,237.107 200.048 C 235.687 200.739,234.216 201.636,233.838 202.042 C 233.459 202.448,232.979 202.780,232.769 202.780 C 232.559 202.780,231.842 203.197,231.175 203.706 C 230.508 204.215,229.393 204.821,228.697 205.054 C 228.002 205.287,227.097 205.781,226.686 206.150 C 226.276 206.520,225.345 207.071,224.618 207.375 C 223.891 207.679,223.080 208.187,222.817 208.505 C 222.553 208.823,221.953 209.082,221.483 209.082 C 221.005 209.082,220.296 209.505,219.874 210.041 C 218.251 212.105,214.495 212.333,212.015 210.518 C 210.779 209.613,208.931 208.581,206.257 207.302 C 205.417 206.900,204.618 206.391,204.481 206.169 C 204.344 205.948,203.530 205.423,202.672 205.002 C 199.523 203.458,198.502 202.844,197.811 202.079 C 197.423 201.649,196.949 201.297,196.760 201.297 C 196.160 201.297,191.659 198.944,191.659 198.631 C 191.659 198.467,191.409 198.332,191.103 198.332 C 190.797 198.332,190.245 198.040,189.876 197.683 C 189.507 197.326,187.751 196.295,185.974 195.392 C 184.196 194.489,182.560 193.530,182.337 193.262 C 182.114 192.993,180.909 192.257,179.659 191.625 C 178.409 190.994,176.886 190.109,176.274 189.660 C 175.663 189.210,173.708 188.123,171.930 187.245 C 170.153 186.366,168.495 185.401,168.245 185.101 C 167.996 184.801,166.432 183.902,164.769 183.105 C 163.106 182.308,161.308 181.250,160.773 180.754 C 160.239 180.259,159.421 179.738,158.955 179.596 C 158.490 179.454,157.859 179.127,157.553 178.869 C 157.247 178.612,156.626 178.288,156.171 178.149 C 155.717 178.011,154.659 177.324,153.819 176.623 C 152.980 175.921,152.130 175.348,151.930 175.348 C 151.730 175.348,150.381 174.639,148.933 173.772 C 143.942 170.786,142.906 170.186,141.613 169.536 C 140.899 169.178,139.818 168.549,139.211 168.138 C 138.604 167.728,136.875 166.762,135.369 165.991 C 133.862 165.221,132.136 164.175,131.532 163.667 C 130.928 163.159,130.217 162.743,129.952 162.743 C 129.335 162.743,125.741 160.585,124.201 159.289 C 123.552 158.742,122.809 158.295,122.552 158.295 C 122.294 158.295,120.685 157.455,118.977 156.428 C 117.268 155.401,115.502 154.468,115.052 154.356 C 114.602 154.243,113.946 153.832,113.594 153.442 C 113.241 153.053,112.716 152.734,112.426 152.734 C 112.136 152.734,111.398 152.234,110.786 151.622 C 110.175 151.010,109.418 150.510,109.104 150.510 C 108.421 150.510,105.653 149.001,105.653 148.628 C 105.653 148.484,105.249 148.264,104.755 148.140 C 104.261 148.016,103.385 147.525,102.809 147.047 C 102.233 146.570,101.260 146.009,100.648 145.801 C 100.036 145.593,98.887 144.982,98.094 144.444 C 97.301 143.906,96.481 143.466,96.270 143.466 C 96.060 143.466,95.582 143.189,95.208 142.851 C 94.834 142.512,94.480 142.303,94.423 142.387 C 94.308 142.553,93.394 145.844,92.449 149.490 C 92.119 150.765,91.551 152.892,91.186 154.217 C 89.830 159.157,89.713 159.713,89.713 161.237 C 89.713 162.684,90.331 163.855,91.096 163.855 C 91.274 163.855,92.079 164.330,92.883 164.910 C 93.688 165.490,95.097 166.360,96.015 166.843 C 96.932 167.326,98.100 168.094,98.610 168.549 C 99.120 169.004,100.134 169.626,100.864 169.931 C 101.593 170.236,102.406 170.745,102.670 171.063 C 102.933 171.381,103.297 171.640,103.478 171.640 C 103.660 171.640,104.598 172.156,105.565 172.787 C 111.901 176.920,113.893 178.161,116.033 179.307 C 117.359 180.017,118.810 181.001,119.259 181.494 C 119.708 181.988,120.309 182.391,120.594 182.391 C 120.879 182.391,121.803 182.892,122.647 183.503 C 123.492 184.115,124.325 184.615,124.499 184.615 C 124.673 184.615,125.133 184.973,125.522 185.411 C 125.910 185.848,126.972 186.539,127.882 186.945 C 128.791 187.352,130.793 188.549,132.330 189.606 C 133.867 190.662,135.959 192.001,136.979 192.580 C 137.998 193.160,139.249 193.992,139.759 194.429 C 140.269 194.866,141.770 195.772,143.095 196.442 C 144.421 197.113,145.922 198.031,146.432 198.484 C 146.942 198.937,148.443 199.857,149.768 200.529 C 151.094 201.200,152.437 202.023,152.754 202.358 C 153.071 202.692,154.063 203.365,154.957 203.852 C 155.852 204.340,156.761 204.890,156.976 205.074 C 157.601 205.610,161.305 207.970,161.521 207.970 C 161.629 207.970,162.907 208.763,164.361 209.731 C 165.815 210.700,167.430 211.742,167.948 212.048 C 168.467 212.354,169.820 213.149,170.955 213.815 C 172.090 214.481,173.319 215.357,173.685 215.761 C 174.051 216.166,174.616 216.500,174.942 216.504 C 175.267 216.509,176.979 217.468,178.748 218.636 C 180.516 219.804,183.561 221.761,185.515 222.984 C 187.469 224.208,190.110 225.914,191.383 226.776 C 192.656 227.638,194.282 228.615,194.995 228.947 C 195.709 229.279,198.156 230.784,200.434 232.291 C 202.712 233.799,204.750 235.032,204.962 235.032 C 205.175 235.032,205.898 235.510,206.567 236.095 C 207.237 236.679,208.146 237.269,208.587 237.407 C 209.027 237.544,210.010 238.151,210.769 238.754 C 211.529 239.358,212.312 239.852,212.509 239.852 C 212.706 239.852,213.364 240.269,213.969 240.778 C 215.405 241.986,215.782 241.953,217.963 240.419 C 218.969 239.712,220.344 238.836,221.018 238.473 C 222.791 237.518,227.566 234.304,227.818 233.897 C 227.936 233.706,228.350 233.550,228.738 233.550 C 229.126 233.550,229.741 233.242,230.106 232.867 C 231.086 231.858,236.081 228.730,236.712 228.730 C 237.012 228.730,237.257 228.587,237.257 228.411 C 237.257 228.056,241.807 225.023,242.340 225.023 C 242.526 225.023,243.150 224.531,243.727 223.929 C 244.303 223.327,245.254 222.730,245.838 222.601 C 246.423 222.473,247.062 222.067,247.259 221.699 C 247.456 221.331,248.043 220.924,248.563 220.793 C 249.083 220.663,249.801 220.268,250.159 219.916 C 250.986 219.102,253.740 217.264,255.422 216.404 C 257.157 215.516,259.132 214.269,260.393 213.264 C 260.961 212.811,261.993 212.236,262.687 211.985 C 263.380 211.734,263.948 211.401,263.948 211.246 C 263.948 210.887,268.223 207.970,268.749 207.970 C 268.965 207.970,270.337 207.053,271.799 205.931 C 273.260 204.810,274.761 203.892,275.134 203.892 C 275.506 203.892,276.185 203.517,276.643 203.058 C 277.426 202.273,281.570 199.444,281.937 199.444 C 282.030 199.444,282.887 198.848,283.841 198.120 C 284.795 197.392,286.548 196.305,287.737 195.705 C 288.926 195.105,289.898 194.461,289.898 194.274 C 289.898 194.086,290.227 193.829,290.630 193.701 C 291.032 193.573,292.196 192.895,293.216 192.193 C 294.236 191.492,295.218 190.918,295.400 190.918 C 295.581 190.918,296.278 190.438,296.949 189.852 C 297.620 189.266,299.353 188.151,300.799 187.374 C 302.246 186.597,303.647 185.659,303.914 185.289 C 304.180 184.918,304.613 184.615,304.876 184.615 C 305.138 184.615,305.641 184.297,305.993 183.908 C 306.346 183.519,307.164 182.991,307.812 182.736 C 308.460 182.480,309.347 181.952,309.784 181.562 C 310.221 181.172,311.083 180.574,311.699 180.232 C 312.315 179.890,313.509 179.227,314.353 178.759 C 315.198 178.290,316.657 177.320,317.596 176.603 C 318.536 175.886,320.112 174.890,321.098 174.390 C 322.085 173.890,322.892 173.332,322.892 173.150 C 322.892 172.968,323.601 172.458,324.467 172.018 C 326.349 171.061,328.660 169.590,330.362 168.265 C 331.045 167.734,332.354 166.905,333.272 166.425 C 334.189 165.944,335.357 165.196,335.867 164.764 C 336.703 164.053,339.308 162.443,341.242 161.442 C 342.362 160.862,342.318 159.519,341.062 155.959 C 340.434 154.180,339.772 152.018,339.590 151.154 C 339.408 150.290,339.003 148.832,338.690 147.915 C 338.377 146.997,337.920 145.287,337.676 144.115 C 337.177 141.725,336.247 141.307,334.373 142.631 M344.665 174.604 C 344.145 175.013,343.544 175.348,343.328 175.348 C 343.112 175.348,342.388 175.826,341.718 176.410 C 341.048 176.994,339.803 177.826,338.950 178.258 C 338.097 178.690,337.295 179.213,337.167 179.420 C 337.040 179.627,336.606 179.796,336.204 179.796 C 335.802 179.796,335.374 180.054,335.253 180.369 C 335.132 180.685,334.261 181.357,333.318 181.863 C 329.560 183.879,328.233 184.685,327.343 185.487 C 326.036 186.666,323.373 188.323,322.784 188.323 C 322.512 188.323,321.933 188.655,321.497 189.061 C 320.525 189.967,318.757 191.054,316.725 191.997 C 315.883 192.388,314.965 193.014,314.686 193.388 C 314.408 193.762,313.596 194.363,312.882 194.723 C 310.990 195.677,307.991 197.558,307.136 198.326 C 306.728 198.693,305.310 199.532,303.985 200.191 C 302.660 200.851,301.442 201.619,301.279 201.900 C 301.116 202.180,300.449 202.679,299.796 203.009 C 299.144 203.339,298.276 203.903,297.868 204.264 C 297.461 204.624,296.710 205.040,296.200 205.188 C 295.690 205.336,294.773 205.926,294.161 206.498 C 293.550 207.071,292.120 208.012,290.985 208.589 C 288.826 209.686,285.916 211.491,284.337 212.711 C 283.828 213.105,282.994 213.553,282.484 213.707 C 281.974 213.861,281.180 214.332,280.719 214.754 C 279.683 215.702,277.612 216.981,275.533 217.956 C 274.666 218.362,273.957 218.853,273.957 219.047 C 273.957 219.240,272.831 220.019,271.455 220.777 C 270.079 221.536,268.536 222.526,268.026 222.978 C 267.516 223.430,265.639 224.584,263.855 225.543 C 262.071 226.502,260.612 227.454,260.612 227.658 C 260.612 227.863,259.903 228.369,259.036 228.782 C 257.000 229.754,255.388 230.730,252.239 232.901 C 250.833 233.869,249.479 234.662,249.229 234.662 C 248.979 234.662,248.227 235.133,247.557 235.710 C 246.887 236.286,245.338 237.312,244.115 237.989 C 242.892 238.666,241.048 239.843,240.018 240.605 C 238.988 241.366,237.320 242.408,236.311 242.919 C 235.302 243.431,234.159 244.201,233.770 244.631 C 233.382 245.061,232.935 245.412,232.777 245.412 C 232.345 245.412,227.952 248.037,226.756 249.009 C 226.179 249.478,225.483 249.861,225.209 249.861 C 224.934 249.861,224.214 250.278,223.608 250.788 C 223.002 251.297,222.335 251.715,222.125 251.715 C 221.915 251.715,221.272 252.108,220.696 252.589 C 217.580 255.190,213.269 255.383,211.307 253.010 C 211.001 252.641,210.000 251.983,209.082 251.550 C 208.165 251.116,206.682 250.267,205.788 249.663 C 201.961 247.077,199.249 245.412,198.862 245.412 C 198.634 245.412,198.140 245.074,197.765 244.660 C 197.391 244.245,195.822 243.220,194.279 242.381 C 192.736 241.543,191.057 240.493,190.547 240.048 C 190.037 239.604,188.452 238.538,187.025 237.679 C 181.048 234.083,177.713 231.978,177.016 231.361 C 176.072 230.527,172.478 228.360,172.037 228.360 C 171.854 228.360,171.314 228.016,170.838 227.597 C 170.362 227.177,168.721 226.085,167.192 225.171 C 165.663 224.257,163.889 223.140,163.251 222.690 C 161.154 221.212,153.973 216.664,153.105 216.265 C 152.799 216.124,151.776 215.451,150.831 214.770 C 149.886 214.089,148.927 213.531,148.699 213.531 C 148.472 213.531,147.986 213.232,147.621 212.866 C 147.255 212.501,146.441 211.988,145.811 211.727 C 145.181 211.466,144.198 210.765,143.626 210.168 C 143.054 209.571,142.309 209.082,141.971 209.082 C 141.633 209.082,141.055 208.749,140.686 208.341 C 140.317 207.933,139.803 207.600,139.545 207.600 C 139.286 207.600,138.543 207.153,137.894 206.606 C 136.719 205.618,136.279 205.345,132.818 203.458 C 131.818 202.913,130.797 202.222,130.548 201.922 C 130.299 201.623,129.559 201.156,128.903 200.885 C 128.247 200.615,126.729 199.721,125.530 198.899 C 124.331 198.077,123.083 197.238,122.758 197.034 C 122.433 196.830,120.745 195.774,119.008 194.686 C 117.270 193.599,115.431 192.390,114.921 191.999 C 114.411 191.609,113.194 190.866,112.216 190.347 C 111.238 189.829,110.344 189.161,110.230 188.864 C 110.116 188.566,109.729 188.323,109.371 188.323 C 109.012 188.323,108.321 188.012,107.835 187.634 C 107.349 187.255,106.450 186.686,105.839 186.371 C 105.227 186.055,104.254 185.389,103.676 184.890 C 103.099 184.391,101.597 183.438,100.340 182.772 C 99.083 182.106,97.628 181.164,97.107 180.679 C 96.586 180.193,95.900 179.796,95.582 179.796 C 95.265 179.796,94.375 179.296,93.605 178.684 C 92.835 178.072,92.010 177.572,91.770 177.572 C 91.530 177.572,90.878 177.095,90.320 176.513 C 89.178 175.321,86.547 174.287,86.013 174.821 C 85.826 175.009,85.474 176.413,85.231 177.943 C 84.989 179.472,84.480 181.243,84.101 181.879 C 83.721 182.515,83.407 183.599,83.402 184.288 C 83.392 185.704,83.002 187.368,82.111 189.798 C 80.235 194.912,80.733 197.803,83.781 199.495 C 85.365 200.374,87.300 201.685,88.786 202.884 C 89.398 203.378,90.315 203.999,90.825 204.264 C 91.335 204.528,91.835 204.863,91.937 205.008 C 92.039 205.153,92.665 205.550,93.327 205.889 C 93.990 206.229,94.532 206.643,94.532 206.809 C 94.532 206.976,95.279 207.496,96.191 207.966 C 97.104 208.435,98.131 209.129,98.473 209.507 C 98.815 209.885,99.304 210.195,99.559 210.195 C 99.814 210.195,100.721 210.778,101.576 211.492 C 102.430 212.206,103.295 212.790,103.499 212.790 C 103.703 212.790,104.843 213.530,106.033 214.435 C 107.223 215.340,108.667 216.326,109.242 216.628 C 109.817 216.929,110.533 217.523,110.833 217.948 C 111.132 218.373,111.673 218.721,112.034 218.721 C 112.395 218.721,112.899 219.055,113.154 219.462 C 113.408 219.870,113.752 220.204,113.918 220.204 C 114.373 220.204,119.148 223.382,119.710 224.060 C 119.981 224.386,120.408 224.652,120.659 224.652 C 120.911 224.652,121.854 225.195,122.756 225.857 C 123.657 226.520,124.663 227.229,124.991 227.433 C 126.990 228.677,131.118 231.665,132.033 232.530 C 132.626 233.091,133.355 233.550,133.652 233.550 C 134.123 233.550,136.627 235.213,138.276 236.622 C 138.582 236.884,139.476 237.425,140.263 237.826 C 141.050 238.226,141.777 238.763,141.878 239.018 C 141.980 239.272,142.289 239.481,142.566 239.481 C 142.843 239.481,143.618 239.958,144.287 240.542 C 144.957 241.125,146.006 241.879,146.617 242.217 C 147.229 242.556,148.480 243.407,149.398 244.109 C 150.315 244.812,151.593 245.654,152.237 245.982 C 152.881 246.309,153.699 246.899,154.055 247.292 C 154.411 247.686,154.909 248.007,155.162 248.007 C 155.415 248.007,156.148 248.499,156.792 249.101 C 157.435 249.702,158.272 250.292,158.650 250.412 C 159.029 250.532,160.446 251.458,161.799 252.470 C 163.153 253.482,164.362 254.310,164.486 254.310 C 164.610 254.310,166.021 255.310,167.622 256.534 C 169.222 257.757,170.634 258.758,170.758 258.758 C 170.883 258.758,172.143 259.551,173.558 260.519 C 174.974 261.487,176.679 262.614,177.347 263.021 C 179.830 264.536,181.484 265.728,182.171 266.495 C 182.559 266.929,183.079 267.285,183.325 267.285 C 183.572 267.285,184.245 267.660,184.820 268.119 C 185.396 268.577,186.411 269.286,187.075 269.694 C 188.707 270.695,194.023 274.392,194.254 274.687 C 194.598 275.125,197.995 277.294,198.337 277.294 C 198.524 277.294,199.225 277.758,199.894 278.325 C 200.564 278.892,201.756 279.685,202.543 280.086 C 203.329 280.487,204.690 281.441,205.565 282.206 C 206.441 282.970,207.270 283.596,207.408 283.596 C 207.931 283.596,211.897 286.341,212.670 287.238 C 213.953 288.727,216.664 288.621,218.229 287.022 C 218.876 286.361,219.648 285.820,219.945 285.820 C 220.241 285.820,220.687 285.575,220.935 285.276 C 221.183 284.977,222.413 284.158,223.668 283.455 C 224.923 282.752,226.346 281.755,226.831 281.238 C 227.315 280.721,228.177 280.196,228.746 280.071 C 229.316 279.946,230.171 279.502,230.646 279.086 C 231.122 278.669,233.374 277.099,235.652 275.598 C 237.930 274.097,239.904 272.689,240.040 272.470 C 240.175 272.252,240.939 271.811,241.737 271.492 C 242.535 271.172,243.188 270.765,243.188 270.586 C 243.188 270.407,244.481 269.490,246.061 268.548 C 250.282 266.033,251.296 265.357,252.549 264.226 C 253.170 263.665,253.880 263.207,254.127 263.207 C 254.374 263.207,255.308 262.624,256.204 261.913 C 257.099 261.201,258.015 260.617,258.241 260.615 C 258.466 260.613,259.100 260.195,259.650 259.685 C 260.200 259.175,260.844 258.758,261.081 258.758 C 261.318 258.758,261.852 258.420,262.267 258.006 C 263.347 256.930,265.368 255.583,267.192 254.723 C 268.058 254.315,268.767 253.835,268.767 253.658 C 268.767 253.480,269.393 253.041,270.158 252.683 C 271.395 252.102,274.209 250.355,274.699 249.862 C 275.219 249.339,277.309 248.007,277.610 248.007 C 277.800 248.007,278.050 247.762,278.165 247.463 C 278.280 247.164,278.997 246.658,279.760 246.340 C 280.522 246.021,281.405 245.511,281.722 245.205 C 282.605 244.355,284.748 242.907,286.191 242.186 C 286.905 241.829,288.024 241.116,288.680 240.602 C 291.132 238.676,291.969 238.123,293.156 237.646 C 293.826 237.376,294.541 236.844,294.745 236.464 C 294.948 236.085,295.336 235.774,295.607 235.774 C 295.878 235.774,296.570 235.399,297.145 234.940 C 297.720 234.481,298.899 233.689,299.765 233.179 C 301.969 231.882,306.689 228.707,309.822 226.414 C 310.588 225.854,311.881 225.085,312.697 224.707 C 313.513 224.328,314.498 223.661,314.886 223.223 C 315.274 222.786,315.735 222.428,315.909 222.428 C 316.083 222.428,316.916 221.928,317.760 221.316 C 318.605 220.704,319.456 220.204,319.652 220.204 C 319.848 220.204,320.807 219.535,321.783 218.718 C 322.760 217.900,324.117 216.997,324.801 216.711 C 325.484 216.425,326.447 215.759,326.941 215.232 C 327.436 214.704,328.002 214.272,328.200 214.272 C 328.399 214.272,329.441 213.689,330.516 212.975 C 331.591 212.261,332.645 211.677,332.858 211.677 C 333.071 211.677,333.424 211.344,333.642 210.936 C 333.861 210.528,334.263 210.195,334.537 210.195 C 334.810 210.195,335.261 209.922,335.538 209.588 C 335.815 209.254,336.711 208.690,337.530 208.335 C 338.348 207.980,339.422 207.252,339.916 206.718 C 340.411 206.183,341.023 205.746,341.278 205.746 C 341.533 205.746,342.213 205.367,342.789 204.903 C 343.365 204.439,344.296 203.827,344.856 203.543 C 345.417 203.258,345.876 202.906,345.876 202.760 C 345.876 202.415,350.791 199.444,351.361 199.444 C 352.960 199.444,353.009 194.766,351.444 191.659 C 351.085 190.945,350.695 189.501,350.579 188.450 C 350.463 187.398,349.952 185.730,349.444 184.742 C 348.936 183.755,348.401 182.119,348.256 181.106 C 348.111 180.093,347.686 178.592,347.313 177.769 C 346.939 176.947,346.630 175.919,346.625 175.486 C 346.611 174.140,345.748 173.752,344.665 174.604 M174.378 311.770 C 174.378 314.319,174.437 315.361,174.510 314.087 C 174.582 312.813,174.582 310.728,174.510 309.453 C 174.437 308.179,174.378 309.222,174.378 311.770 "
            stroke="none" fill="#44742b" fill-rule="evenodd"></path>
    </g>
</svg>