<?xml version="1.0" standalone="no"?>
<!DOCTYPE svg PUBLIC "-//W3C//DTD SVG 20010904//EN"
 "http://www.w3.org/TR/2001/REC-SVG-20010904/DTD/svg10.dtd">
<svg version="1.0" xmlns="http://www.w3.org/2000/svg"
 width="800.000000pt" height="800.000000pt" viewBox="0 0 800.000000 800.000000"
 preserveAspectRatio="xMidYMid meet">
<metadata>
Created by potrace 1.14, written by Peter Selinger 2001-2017
</metadata>
<g transform="translate(0.000000,800.000000) scale(0.100000,-0.100000)"
fill="#000000" stroke="none">
<path d="M3460 7040 c0 -3 -21 -6 -48 -6 -71 -2 -115 -7 -132 -15 -18 -8 -86
-19 -150 -24 -36 -2 -145 -26 -280 -59 -67 -17 -164 -47 -207 -65 -29 -11 -76
-30 -104 -41 -28 -11 -77 -34 -110 -50 -32 -17 -61 -30 -64 -30 -14 -1 -297
-162 -322 -184 -7 -6 -35 -27 -63 -46 -212 -146 -436 -358 -589 -560 -19 -25
-40 -49 -46 -55 -14 -12 -126 -179 -149 -220 -9 -16 -25 -43 -35 -60 -27 -43
-122 -229 -121 -238 0 -4 -12 -31 -27 -60 -15 -28 -35 -74 -45 -102 -22 -59
-88 -279 -94 -315 -3 -14 -7 -33 -10 -42 -7 -22 -14 -57 -19 -90 -2 -15 -6
-31 -9 -36 -3 -5 -7 -19 -10 -33 -3 -13 -7 -35 -10 -49 -3 -14 -8 -59 -12
-101 -6 -88 -7 -90 -24 -149 -18 -62 -19 -376 -2 -408 13 -23 17 -46 28 -157
7 -85 9 -93 27 -155 9 -30 19 -77 22 -104 3 -27 8 -53 11 -58 3 -4 7 -16 9
-25 17 -83 78 -267 126 -378 71 -164 219 -436 254 -465 8 -7 15 -17 15 -22 0
-5 19 -34 43 -65 23 -31 53 -72 67 -92 14 -20 32 -36 40 -36 21 0 18 33 -9
123 -5 18 -10 33 -10 35 0 1 -2 9 -5 17 -3 8 -14 60 -26 115 -12 55 -28 127
-36 160 -21 78 -27 111 -40 220 -3 28 -8 53 -10 57 -25 42 -26 914 -1 955 3 4
8 37 12 73 4 36 8 67 10 70 2 3 6 28 9 55 4 28 13 68 21 90 7 22 16 58 19 80
4 22 9 48 12 57 3 9 6 25 8 35 2 10 10 38 17 63 7 25 13 50 15 55 8 36 88 243
118 307 20 42 36 83 36 91 0 7 4 17 9 23 6 5 46 80 91 167 44 87 89 168 100
179 11 12 22 30 26 40 3 10 10 18 15 18 5 0 9 5 9 11 0 10 99 157 129 189 9
10 21 25 26 32 47 63 158 189 226 257 95 95 277 261 285 261 3 0 10 4 17 10
45 36 80 62 137 101 36 24 70 47 75 52 18 14 187 108 242 134 29 14 53 29 53
34 0 5 7 9 15 9 8 0 23 4 33 10 65 36 266 109 344 125 18 4 59 16 91 27 31 12
60 18 63 15 3 -3 16 -2 28 2 12 5 43 12 70 15 27 4 52 9 56 11 13 8 192 17
315 17 204 -2 301 -9 425 -33 30 -5 70 -12 89 -15 18 -2 42 -9 53 -15 10 -6
27 -12 36 -14 50 -11 140 -37 160 -45 12 -6 32 -14 45 -19 44 -17 342 -164
347 -171 3 -4 30 -22 60 -40 30 -18 72 -44 93 -58 20 -14 40 -22 43 -19 8 7
-10 25 -56 57 -19 13 -37 27 -40 30 -7 9 -161 114 -180 123 -8 4 -28 15 -45
26 -33 20 -86 51 -137 79 -28 15 -126 59 -263 117 -54 24 -149 57 -185 65 -19
5 -66 18 -105 29 -38 12 -83 24 -100 27 -16 2 -46 9 -65 14 -19 5 -60 11 -90
14 -30 3 -80 10 -110 16 -70 14 -130 20 -255 26 -167 8 -275 9 -275 4z"/>
<path d="M5385 6400 c-8 -13 -1 -24 14 -19 6 3 7 10 2 18 -6 10 -10 10 -16 1z"/>
<path d="M4250 6357 c-36 -18 -67 -35 -70 -38 -3 -4 -16 -10 -30 -14 -14 -4
-40 -18 -59 -31 -19 -13 -38 -21 -43 -18 -4 3 -8 1 -8 -4 0 -9 -20 -18 -58
-27 -8 -2 -21 -9 -30 -17 -10 -7 -33 -21 -52 -30 -19 -9 -68 -33 -108 -52 -96
-48 -108 -54 -134 -68 -13 -6 -54 -27 -93 -46 -76 -36 -120 -58 -205 -103 -30
-16 -60 -29 -66 -29 -7 0 -15 -7 -18 -15 -3 -9 -11 -15 -18 -13 -7 1 -32 -8
-55 -20 -23 -12 -49 -22 -58 -22 -8 0 -15 -4 -15 -8 0 -5 -102 -60 -227 -123
-126 -63 -230 -116 -233 -119 -10 -10 -161 -85 -163 -81 -1 3 -20 -7 -42 -20
-34 -21 -280 -144 -325 -163 -39 -16 -155 -85 -158 -94 -4 -13 46 -60 73 -68
11 -4 22 -9 25 -13 12 -15 80 -61 89 -61 6 0 19 -8 29 -17 9 -10 28 -24 42
-30 33 -17 78 -43 115 -68 47 -32 69 -45 85 -52 8 -3 41 -24 72 -45 31 -21 60
-38 63 -38 3 0 11 -5 18 -10 30 -26 151 -100 163 -100 8 0 14 -4 14 -10 0 -5
17 -17 38 -27 20 -9 39 -20 42 -23 8 -9 140 -90 147 -90 3 0 20 -11 37 -24 17
-12 90 -58 161 -101 72 -43 132 -81 135 -84 8 -10 42 -30 77 -46 17 -8 34 -19
38 -24 3 -5 18 -16 33 -24 44 -22 75 -41 95 -59 10 -9 40 -27 65 -40 25 -12
51 -27 57 -31 5 -5 24 -17 40 -27 17 -11 39 -25 50 -32 10 -7 49 -31 85 -53
36 -22 70 -43 75 -47 23 -19 177 -108 186 -108 5 0 9 -4 9 -9 0 -5 15 -16 33
-25 17 -9 52 -29 77 -45 78 -48 82 -48 191 13 19 10 55 34 80 52 26 19 51 34
57 34 6 0 23 10 39 23 33 26 54 39 111 68 23 13 42 25 42 29 0 3 19 17 43 30
40 22 96 59 107 70 3 3 21 13 40 24 39 21 142 87 150 95 7 8 42 30 65 40 11 5
30 19 42 30 13 12 24 20 25 19 2 -2 49 26 106 62 57 36 120 75 140 87 20 12
44 27 52 33 56 39 141 90 149 90 5 0 11 4 13 9 2 5 17 17 35 27 86 51 209 127
213 133 3 4 23 18 45 31 22 13 70 43 107 67 37 24 71 43 75 43 5 0 23 13 41
30 18 16 35 29 37 29 9 1 70 34 75 41 3 4 48 33 100 65 204 126 224 149 151
178 -21 9 -42 21 -46 27 -3 5 -15 10 -26 10 -10 0 -19 4 -19 8 0 5 -71 44
-157 87 -87 43 -173 88 -192 101 -19 13 -38 21 -43 18 -4 -3 -8 -1 -8 5 0 10
-38 27 -52 23 -5 -1 -8 2 -8 7 0 4 -62 39 -137 77 -76 38 -140 71 -143 74 -3
3 -41 23 -85 44 -44 22 -101 52 -127 67 -25 15 -49 25 -52 22 -3 -4 -6 -2 -6
4 0 6 -15 16 -32 23 -18 8 -41 20 -50 28 -10 8 -18 12 -18 8 0 -3 -17 4 -37
17 -21 13 -49 28 -63 32 -14 4 -32 13 -40 20 -8 6 -46 28 -85 47 -38 20 -106
55 -150 79 -44 23 -107 55 -140 71 -33 16 -67 33 -75 39 -8 5 -49 26 -90 47
-91 47 -120 63 -142 81 -10 8 -18 11 -18 7 0 -4 -15 1 -32 12 -83 49 -151 82
-171 82 -12 0 -51 -15 -87 -33z"/>
<path d="M5435 6350 c3 -5 8 -10 11 -10 2 0 4 5 4 10 0 6 -5 10 -11 10 -5 0
-7 -4 -4 -10z"/>
<path d="M6655 4864 c-22 -13 -57 -33 -77 -44 -39 -21 -105 -63 -125 -80 -6
-5 -30 -17 -52 -27 -23 -10 -41 -21 -41 -25 0 -5 -6 -8 -14 -8 -8 0 -16 -3
-18 -7 -1 -5 -25 -19 -53 -33 -27 -14 -67 -37 -90 -51 -22 -15 -57 -36 -77
-48 -21 -11 -55 -30 -75 -42 -21 -12 -44 -26 -51 -31 -14 -12 -83 -52 -122
-71 -14 -6 -29 -15 -35 -20 -22 -16 -82 -54 -113 -70 -46 -25 -83 -45 -117
-67 -16 -11 -37 -23 -45 -27 -8 -4 -45 -26 -82 -50 -36 -24 -71 -43 -77 -43
-6 0 -11 -3 -11 -8 0 -4 -15 -14 -32 -21 -18 -8 -48 -25 -67 -38 -19 -13 -36
-21 -39 -19 -2 3 -16 -6 -30 -20 -15 -13 -32 -24 -39 -24 -7 0 -13 -4 -13 -8
0 -4 -16 -14 -35 -21 -19 -7 -35 -17 -35 -22 0 -5 -6 -9 -14 -9 -8 0 -21 -6
-28 -12 -15 -14 -38 -28 -98 -59 -21 -11 -43 -26 -49 -33 -6 -7 -31 -21 -56
-32 -25 -10 -45 -22 -45 -27 0 -4 -4 -6 -8 -3 -5 3 -18 -2 -28 -12 -22 -19
-53 -38 -99 -61 -16 -8 -32 -17 -35 -21 -5 -7 -128 -80 -135 -80 -2 0 -33 -19
-70 -41 -79 -50 -114 -54 -177 -23 -27 13 -51 24 -54 23 -4 0 -10 3 -13 8 -3
4 -17 14 -30 22 -32 18 -111 61 -136 75 -11 6 -22 14 -25 17 -3 3 -32 21 -65
39 -33 18 -64 36 -70 40 -5 4 -31 19 -56 33 -78 42 -94 52 -109 64 -15 11 -70
42 -153 86 -25 14 -60 35 -76 47 -17 12 -31 18 -31 13 0 -4 -4 -3 -8 3 -10 15
-132 85 -132 76 0 -4 -5 1 -11 11 -5 9 -16 17 -24 17 -7 0 -20 6 -27 13 -7 6
-26 19 -43 27 -16 8 -48 26 -70 40 -22 14 -53 32 -70 40 -16 8 -57 32 -89 52
-33 21 -65 38 -73 38 -7 0 -13 5 -13 10 0 6 -7 10 -15 10 -8 0 -15 5 -15 10 0
6 -4 10 -9 10 -5 0 -48 23 -96 50 -48 28 -88 50 -90 50 -2 0 -32 18 -66 40
-35 22 -75 46 -89 52 -14 7 -27 15 -30 18 -9 9 -83 50 -136 75 -28 13 -57 31
-64 39 -7 9 -16 13 -21 10 -5 -3 -9 0 -9 5 0 6 -6 11 -14 11 -8 0 -21 6 -28
14 -8 7 -57 38 -109 67 -52 29 -96 55 -99 58 -12 14 -67 36 -88 36 -19 0 -27
-9 -38 -40 -11 -33 -37 -122 -49 -170 -1 -5 -4 -17 -7 -25 -7 -19 -29 -116
-35 -156 -5 -39 28 -82 86 -110 22 -10 41 -22 41 -26 0 -5 4 -8 10 -8 5 0 26
-12 47 -26 21 -14 47 -30 58 -35 11 -6 61 -37 110 -69 50 -33 122 -79 160
-102 39 -23 72 -45 73 -50 2 -4 7 -6 12 -3 4 3 13 -2 20 -10 7 -8 19 -15 26
-15 8 0 14 -4 14 -8 0 -5 19 -19 43 -32 23 -13 44 -26 47 -29 3 -3 46 -30 95
-60 50 -29 100 -63 113 -74 12 -11 22 -18 22 -14 0 3 17 -5 38 -18 20 -14 44
-30 52 -35 8 -5 35 -23 60 -40 25 -16 48 -30 53 -30 4 0 30 -16 57 -35 27 -19
52 -35 55 -35 3 0 11 -5 18 -10 24 -20 83 -57 115 -71 17 -7 32 -17 32 -20 0
-4 33 -26 73 -50 39 -24 74 -46 77 -49 7 -7 42 -29 60 -37 8 -3 39 -21 68 -40
29 -18 57 -33 62 -33 6 0 10 -4 10 -10 0 -5 4 -10 9 -10 5 0 44 -23 88 -52 43
-28 94 -61 113 -73 56 -35 183 -115 205 -128 87 -54 153 -94 166 -102 9 -6 36
-23 60 -40 78 -52 100 -56 158 -26 28 14 63 36 78 49 15 12 31 22 35 22 5 0
31 16 58 35 27 19 52 35 55 35 3 0 11 5 18 10 23 20 113 77 162 104 28 16 52
31 55 35 3 4 26 19 52 34 26 15 53 33 60 40 7 7 34 25 60 40 26 15 53 34 62
42 8 9 18 16 20 16 16 0 249 147 254 161 2 4 10 8 18 8 8 0 14 5 14 10 0 6 4
10 10 10 5 0 71 39 145 88 75 48 148 94 163 102 15 8 31 21 35 28 4 6 15 12
22 12 8 0 15 5 15 10 0 6 5 10 12 10 6 0 43 21 82 48 39 26 88 56 109 67 20
11 37 23 37 27 0 5 7 8 15 8 9 0 18 7 21 15 4 8 12 15 18 15 10 0 83 44 121
72 25 19 148 98 153 98 5 0 142 90 152 100 3 3 22 14 44 25 21 11 40 26 43 33
3 6 13 12 23 12 10 0 23 7 30 16 8 8 55 40 106 71 130 77 147 94 140 141 -7
54 -26 125 -35 137 -5 5 -12 26 -16 45 -4 19 -10 40 -14 45 -4 6 -8 20 -9 32
0 12 -10 43 -21 68 -17 38 -24 45 -48 44 -15 0 -46 -11 -68 -25z"/>
<path d="M1707 4237 c-8 -7 -17 -25 -20 -42 -7 -37 -40 -164 -61 -229 -8 -27
-13 -52 -11 -56 2 -4 -4 -34 -14 -66 -27 -88 -19 -114 44 -147 17 -8 40 -25
53 -37 12 -11 22 -18 22 -15 0 3 6 1 13 -5 11 -10 32 -24 92 -62 11 -7 36 -25
56 -40 20 -16 41 -28 47 -28 6 0 12 -4 14 -8 2 -4 26 -23 53 -42 28 -18 90
-61 139 -94 189 -129 229 -156 237 -156 4 0 9 -3 11 -7 5 -12 215 -153 227
-153 6 0 11 -3 11 -7 0 -5 25 -24 55 -43 30 -19 55 -38 55 -41 0 -4 8 -9 18
-13 17 -5 52 -26 62 -36 3 -3 25 -19 50 -35 25 -17 47 -33 48 -37 2 -5 10 -8
18 -8 8 0 14 -4 14 -10 0 -5 6 -10 14 -10 8 0 16 -3 18 -7 2 -5 23 -21 48 -38
25 -16 85 -58 134 -92 49 -35 95 -63 102 -63 7 0 14 -3 16 -7 4 -10 115 -93
123 -93 3 0 30 -18 60 -40 30 -22 58 -40 64 -40 5 0 11 -4 13 -8 2 -5 46 -37
98 -72 52 -35 97 -67 100 -71 3 -3 19 -13 37 -22 17 -9 38 -23 46 -31 7 -8 56
-42 108 -75 52 -34 99 -65 104 -69 6 -4 46 -32 90 -61 44 -30 95 -67 114 -83
30 -26 39 -29 74 -24 43 7 91 29 122 55 11 10 63 44 115 76 52 33 97 63 98 67
2 4 8 8 13 8 5 0 33 16 62 35 28 20 60 41 71 48 10 7 24 18 32 25 7 6 16 12
21 12 4 0 19 10 33 23 14 12 45 33 70 47 25 13 54 32 64 42 11 10 24 18 28 18
5 0 33 18 63 40 30 22 58 40 64 40 5 0 11 3 13 8 4 10 85 62 97 62 5 0 11 4
13 8 2 4 44 34 93 67 50 32 93 63 97 69 4 6 8 7 8 3 0 -8 69 40 81 56 3 5 9 8
13 8 6 -1 49 24 71 42 14 11 328 217 331 217 1 0 38 24 81 53 43 28 85 57 94
62 66 40 165 109 167 116 2 5 8 9 14 9 6 0 27 13 48 30 21 17 43 30 49 30 6 0
11 4 11 9 0 5 11 12 25 15 14 4 25 10 25 15 0 5 14 14 30 21 17 7 30 16 30 21
0 5 4 9 9 9 12 0 285 182 289 192 2 5 7 6 12 3 4 -2 15 4 25 15 10 11 23 20
29 20 6 0 23 11 38 25 15 14 30 25 33 25 4 0 21 11 38 24 18 14 35 25 40 25
36 2 51 49 26 82 -10 13 -19 33 -19 45 0 11 -3 24 -7 28 -5 4 -8 11 -9 14 -1
18 -72 255 -93 317 -22 61 -44 67 -98 31 -21 -14 -42 -26 -48 -26 -6 0 -22
-10 -36 -22 -29 -26 -54 -43 -89 -61 -14 -6 -64 -38 -112 -69 -48 -32 -90 -58
-93 -58 -3 0 -11 -5 -18 -11 -17 -14 -137 -91 -170 -108 -15 -8 -27 -18 -27
-23 0 -4 -5 -8 -12 -8 -13 0 -201 -120 -206 -132 -2 -4 -7 -6 -12 -3 -4 3 -13
-2 -20 -10 -7 -8 -18 -15 -26 -15 -7 0 -17 -6 -21 -12 -8 -13 -36 -33 -63 -45
-8 -3 -28 -16 -45 -27 -37 -26 -51 -35 -109 -65 -26 -14 -54 -33 -63 -43 -9
-10 -20 -18 -25 -18 -5 0 -42 -22 -83 -50 -41 -27 -77 -50 -80 -50 -3 0 -27
-16 -54 -35 -26 -19 -52 -35 -56 -35 -4 0 -45 -25 -91 -55 -47 -30 -88 -55
-92 -55 -4 0 -20 -12 -37 -26 -16 -14 -52 -37 -79 -51 -27 -13 -58 -33 -68
-43 -11 -10 -33 -24 -49 -30 -16 -7 -29 -16 -29 -21 0 -5 -5 -9 -11 -9 -11 0
-98 -54 -270 -167 -44 -29 -82 -53 -84 -53 -8 0 -170 -105 -173 -112 -2 -5
-12 -8 -23 -8 -10 0 -19 -4 -19 -8 0 -20 -45 -29 -80 -15 -19 7 -43 16 -52 19
-10 4 -18 10 -18 15 0 5 -4 9 -9 9 -12 0 -105 61 -109 72 -2 4 -9 8 -16 8 -7
0 -32 14 -54 30 -23 17 -44 30 -46 30 -3 0 -75 45 -161 100 -87 55 -161 100
-166 100 -5 0 -9 5 -9 10 0 6 -5 10 -11 10 -6 0 -32 14 -57 32 -26 17 -59 40
-74 50 -15 10 -32 18 -38 18 -5 0 -10 4 -10 9 0 5 -15 16 -32 25 -45 22 -66
36 -109 69 -20 15 -40 27 -44 27 -4 0 -33 17 -64 39 -31 21 -72 46 -91 56 -18
9 -42 26 -53 36 -12 10 -33 25 -49 31 -15 7 -28 16 -28 20 0 5 -7 8 -15 8 -8
0 -15 5 -15 10 0 6 -6 10 -13 10 -7 0 -31 13 -53 30 -21 16 -44 30 -49 30 -6
0 -20 7 -30 15 -33 25 -167 111 -220 140 -27 16 -52 31 -55 35 -3 3 -36 27
-75 51 -38 25 -77 53 -86 62 -9 9 -28 19 -42 22 -15 4 -31 13 -38 21 -6 8 -18
14 -25 14 -8 0 -14 4 -14 8 0 5 -19 19 -42 32 -24 13 -64 38 -89 56 -25 19
-49 31 -53 27 -3 -3 -6 -1 -6 5 0 7 -6 12 -13 12 -7 0 -22 8 -33 18 -10 10
-39 29 -64 42 -25 14 -46 28 -48 33 -2 4 -9 7 -16 7 -7 0 -21 9 -31 20 -10 11
-22 20 -28 20 -5 0 -21 8 -35 18 -49 33 -78 42 -95 29z"/>
<path d="M3824 1782 c-7 -6 -12 -537 -5 -659 1 -20 6 -22 41 -20 l40 2 0 186
0 185 48 24 c62 32 133 35 161 9 31 -29 35 -57 35 -236 0 -104 4 -163 11 -164
5 -1 25 -2 43 -4 l32 -3 -2 191 c-1 161 -5 197 -20 228 -46 97 -176 115 -280
39 l-26 -19 -1 116 c-1 63 -3 119 -6 123 -6 9 -58 11 -71 2z"/>
<path d="M1962 1755 c-55 -17 -88 -39 -133 -88 -48 -53 -72 -124 -76 -223 -5
-164 53 -272 176 -327 65 -29 203 -28 285 1 33 12 64 26 68 30 9 9 20 102 12
102 -2 0 -21 -11 -42 -25 -123 -81 -280 -74 -353 17 -36 46 -52 101 -54 188
-4 167 86 270 230 264 33 -1 74 -8 90 -14 17 -6 31 -11 32 -11 2 0 22 -12 45
-28 24 -16 45 -27 48 -25 2 3 4 24 5 47 0 51 -12 62 -100 87 -73 21 -171 23
-233 5z"/>
<path d="M2409 1760 c-11 -66 -1 -88 39 -84 12 1 28 2 36 3 10 1 15 13 14 41
0 22 -3 40 -7 41 -28 4 -81 4 -82 -1z"/>
<path d="M3012 1721 l3 -45 43 -1 c44 -1 45 1 42 50 -2 38 -1 37 -50 39 l-41
2 3 -45z"/>
<path d="M4769 1750 c-1 -8 -2 -22 -3 -30 -3 -32 12 -46 51 -45 36 1 38 3 41
34 4 42 -8 55 -53 56 -25 0 -35 -4 -36 -15z"/>
<path d="M3178 1729 c-3 -16 -2 -33 2 -39 5 -8 76 -12 195 -10 l40 1 -1 -286
c0 -157 2 -286 5 -286 31 -6 73 -4 77 3 4 5 6 135 5 288 l-1 279 111 0 c62 0
114 3 118 6 3 4 6 21 6 39 l1 32 -277 0 -277 1 -4 -28z"/>
<path d="M2664 1726 c-2 -6 -5 -38 -6 -71 -3 -56 -4 -60 -28 -60 -21 0 -25 -5
-26 -32 -1 -18 4 -34 10 -34 6 -1 18 -2 26 -3 12 -1 16 -30 20 -173 4 -154 7
-174 26 -200 36 -49 101 -66 202 -52 22 3 25 6 25 34 0 41 -3 46 -23 40 -44
-14 -102 -8 -123 13 -19 20 -21 33 -21 179 l-1 158 80 1 c99 2 92 0 89 27 -1
12 -3 27 -3 32 -1 6 -36 10 -83 10 l-83 0 -1 50 c-3 97 -1 92 -40 92 -20 0
-38 -5 -40 -11z"/>
<path d="M5664 1594 c-51 -18 -109 -72 -130 -122 -25 -55 -29 -151 -9 -218 27
-92 103 -151 210 -159 56 -5 146 10 187 31 23 12 26 19 23 51 -1 21 -3 40 -4
42 -1 2 -11 -3 -23 -11 -51 -33 -191 -58 -204 -37 -3 5 -13 9 -23 9 -22 0 -76
57 -86 90 -21 68 -29 64 170 70 l180 5 -3 55 c-3 75 -17 112 -57 152 -52 55
-147 72 -231 42z m169 -85 c28 -26 50 -79 38 -96 -3 -5 -67 -9 -142 -9 -124 1
-137 2 -134 18 5 22 25 59 41 76 48 48 151 54 197 11z"/>
<path d="M2414 1591 c-7 -8 -4 -481 4 -483 26 -5 68 -4 72 2 3 5 5 115 5 246
l0 238 -38 1 c-21 0 -40 -1 -43 -4z"/>
<path d="M3019 1595 c-1 0 -2 -109 -3 -242 -1 -160 2 -244 9 -246 5 -2 24 -3
40 -3 l30 1 0 244 0 245 -37 1 c-21 0 -39 0 -39 0z"/>
<path d="M4389 1576 c-4 -84 -3 -460 1 -466 3 -5 21 -8 40 -7 l35 2 3 176 2
176 43 23 c23 14 49 26 57 28 25 5 100 3 110 -3 6 -4 10 14 10 42 l0 49 -49
-2 c-52 -3 -114 -25 -143 -50 -22 -21 -36 -11 -31 23 4 27 2 28 -36 29 -35 1
-41 -2 -42 -20z"/>
<path d="M4775 1590 c-2 -4 -4 -113 -4 -243 1 -169 4 -237 12 -240 7 -2 25 -3
42 -3 l30 1 0 243 c0 157 -3 242 -10 243 -53 5 -66 5 -70 -1z"/>
<path d="M4974 1585 c-3 -6 16 -57 40 -113 25 -56 42 -102 39 -102 -3 0 0 -6
6 -14 7 -8 14 -22 16 -32 2 -11 20 -56 39 -102 20 -46 36 -89 36 -97 0 -16 15
-22 60 -21 34 1 35 2 72 91 32 78 57 138 63 155 1 3 6 16 12 30 47 111 82 204
79 208 -3 2 -21 5 -42 5 l-37 2 -37 -95 c-20 -52 -42 -108 -48 -123 -7 -16
-12 -32 -12 -36 0 -4 -6 -21 -13 -37 -8 -16 -20 -44 -28 -62 l-14 -33 -39 98
c-21 54 -55 141 -75 193 l-38 94 -37 1 c-21 1 -40 -4 -42 -10z"/>
</g>
</svg>
